<?xml version="1.0" encoding="utf-8"?>
<!-- Generator: Adobe Illustrator 27.4.0, SVG Export Plug-In . SVG Version: 6.00 Build 0)  -->
<svg version="1.1" id="Layer_1" xmlns="http://www.w3.org/2000/svg" xmlns:xlink="http://www.w3.org/1999/xlink" x="0px" y="0px"
	 viewBox="0 0 124.75 39.51" style="enable-background:new 0 0 124.75 39.51;" xml:space="preserve">
<style type="text/css">
	.komunitas-gayam0{fill:#FFFFFF;}
</style>
<g>
	<path class="komunitas-gayam0" d="M124.69,5.67c-0.1-0.46-0.38-0.8-0.81-0.99c-0.31-0.14-0.64-0.25-0.97-0.36c-0.43-0.14-0.87-0.24-1.31-0.38
		c-0.19-0.06-0.33-0.18-0.32-0.4c0-0.2,0.14-0.32,0.31-0.37c0.6-0.18,1.41-0.2,1.69,0.57c0.41-0.08,0.82-0.16,1.24-0.24
		c-0.18-0.61-0.5-1.08-1.1-1.27c-0.79-0.26-1.59-0.27-2.37,0.02c-0.8,0.3-1.18,1.13-0.96,1.96c0.16,0.6,0.6,0.91,1.15,1.08
		c0.57,0.18,1.15,0.33,1.72,0.5c0.19,0.06,0.36,0.14,0.38,0.38c0.02,0.26-0.07,0.45-0.3,0.56c-0.45,0.2-0.91,0.21-1.36,0
		c-0.12-0.06-0.23-0.18-0.31-0.3c-0.09-0.13-0.14-0.29-0.22-0.43c-0.44,0.07-0.87,0.15-1.32,0.22c0.19,0.73,0.61,1.23,1.3,1.49
		c0.71,0.27,1.45,0.28,2.18,0.07c0.7-0.21,1.2-0.64,1.36-1.39c0.01-0.03,0.03-0.05,0.05-0.07c0-0.18,0-0.36,0-0.54
		C124.73,5.73,124.7,5.71,124.69,5.67z"/>
	<path class="komunitas-gayam0" d="M93.94,18.92c-0.31-1.11-0.94-1.99-1.91-2.6c-0.95-0.6-2.01-0.78-3.12-0.69c-1.27,0.11-2.42,0.58-3.44,1.34
		c-0.29,0.22-0.56,0.46-0.87,0.71c-1.14-1.42-2.62-2.2-4.44-2.22c-1.83-0.01-3.32,0.75-4.5,2.23c-0.02-0.1-0.03-0.12-0.03-0.15
		c0-0.41-0.01-0.82,0-1.22c0.01-0.18-0.06-0.22-0.23-0.22c-0.87,0.01-1.74,0-2.61,0c-1.14,0-2.28,0-3.42,0
		c-0.15,0-0.21,0.04-0.2,0.2c0.02,0.23,0.02,0.47,0.02,0.7c0,4.46,0,8.91,0,13.37c0,0.07,0,0.15,0,0.22
		c0.08,0.01,0.14,0.01,0.19,0.01c2.16,0,4.32,0,6.48,0c0.28,0,0.28-0.01,0.28-0.29c0-2.53,0-5.05,0.01-7.58
		c0-0.26,0.04-0.54,0.12-0.79c0.17-0.53,0.71-0.89,1.21-0.86c0.45,0.03,0.86,0.44,0.96,1c0.06,0.34,0.09,0.69,0.09,1.03
		c0,2.42,0,4.84-0.01,7.26c0,0.16,0.04,0.23,0.22,0.23c1.26-0.01,2.52,0,3.78,0c0.86,0,1.72-0.01,2.57,0c0.21,0,0.26-0.07,0.26-0.27
		c-0.01-2.54-0.01-5.08,0-7.62c0-0.22,0.01-0.45,0.05-0.66c0.06-0.32,0.18-0.63,0.45-0.84c0.47-0.36,1.12-0.14,1.41,0.29
		c0.28,0.4,0.36,0.85,0.36,1.32c0,2.51,0,5.02,0,7.53c0,0.17,0.03,0.25,0.22,0.25c1.92,0,3.85,0,5.77,0c0.19,0,0.38,0,0.57,0
		c0-0.15,0-0.24,0-0.32c0-3.12,0-6.24,0-9.36C94.2,20.25,94.13,19.58,93.94,18.92z"/>
	<path class="komunitas-gayam0" d="M19.79,19.18c-2.68,0.01-5.37,0.01-8.05,0c-0.2,0-0.24,0.07-0.24,0.25c0.01,1.41,0,2.82,0,4.23
		c0,0.07,0.01,0.13,0.01,0.21c0.09,0,0.16,0.01,0.24,0.01c0.56,0,1.12-0.01,1.68,0.01c0.15,0,0.31,0.06,0.44,0.14
		c0.38,0.24,0.27,0.9,0.04,1.17c-0.22,0.25-0.53,0.28-0.83,0.33c-1.02,0.17-2.01,0.11-2.95-0.34C8.98,24.64,8.29,23.68,8,22.44
		c-0.22-0.93-0.22-1.86,0-2.79c0.18-0.77,0.55-1.44,1.14-1.97c0.62-0.56,1.35-0.9,2.16-1.12c1.04-0.28,2.1-0.34,3.16-0.28
		c1.01,0.06,1.99,0.24,2.96,0.54c0.89,0.28,1.75,0.61,2.47,1.25c0-0.29,0.01-0.57,0-0.85c-0.04-1.67-0.08-3.33-0.12-5
		c-0.01-0.34-0.01-0.33-0.33-0.4c-0.82-0.18-1.65-0.34-2.46-0.54c-1.05-0.25-2.12-0.37-3.2-0.4c-1.25-0.03-2.5-0.01-3.74,0.17
		c-0.95,0.13-1.91,0.3-2.84,0.53c-1.24,0.31-2.36,0.88-3.36,1.67c-0.66,0.53-1.26,1.12-1.78,1.79c-0.51,0.66-0.93,1.38-1.26,2.15
		c-0.36,0.82-0.6,1.67-0.72,2.56c-0.14,1.03-0.09,2.06,0.08,3.09c0.29,1.7,1,3.18,2.16,4.45c0.72,0.79,1.58,1.42,2.52,1.94
		c1.03,0.56,2.11,0.96,3.25,1.25c1.2,0.3,2.41,0.46,3.64,0.53c1.27,0.07,2.54,0.01,3.81-0.13c1.46-0.16,2.89-0.43,4.3-0.82
		c0.18-0.05,0.22-0.12,0.22-0.29c0-3.44,0-6.88,0-10.31C20.06,19.23,20.01,19.18,19.79,19.18z"/>
	<path class="komunitas-gayam0" d="M55,15.96c-0.17,0-0.3,0-0.42,0c-2.07,0.02-4.15,0.03-6.22,0.05c-0.13,0-0.18,0.05-0.22,0.17
		c-0.1,0.33-0.2,0.66-0.3,0.99c-0.29,0.94-0.57,1.89-0.86,2.83c-0.36,1.21-0.73,2.42-1.09,3.62c-0.01,0.03-0.04,0.06-0.09,0.12
		c-0.03-0.1-0.06-0.17-0.08-0.24c-0.19-0.73-0.37-1.46-0.56-2.19c-0.44-1.69-0.88-3.38-1.31-5.07C43.8,16.07,43.72,16,43.54,16
		c-2.21,0.01-4.41,0-6.62,0c-0.07,0-0.13,0.01-0.23,0.01c0.02,0.08,0.04,0.14,0.06,0.19c0.21,0.53,0.42,1.06,0.63,1.6
		c0.67,1.69,1.33,3.37,2,5.06c0.65,1.65,1.3,3.31,1.94,4.96c0.42,1.08,0.85,2.17,1.27,3.25c0.03,0.08,0.05,0.18,0.03,0.26
		c-0.22,0.91-0.52,1.79-1.08,2.56c-0.45,0.62-1.04,1.02-1.8,1.13c-0.92,0.14-1.8-0.09-2.66-0.38c-0.44-0.15-0.87-0.33-1.35-0.51
		c0.02,0.12,0.03,0.2,0.04,0.28c0.24,1.33,0.48,2.66,0.72,3.99c0.02,0.13,0.08,0.2,0.22,0.24c0.66,0.18,1.32,0.41,1.99,0.54
		c0.84,0.15,1.69,0.27,2.54,0.3c0.73,0.03,1.45-0.1,2.16-0.33c0.86-0.29,1.59-0.77,2.15-1.49c0.66-0.84,1.24-1.74,1.72-2.69
		c0.57-1.14,1.17-2.28,1.65-3.46c0.78-1.92,1.49-3.87,2.21-5.81c0.72-1.95,1.39-3.93,2.14-5.87c0.45-1.18,1.01-2.33,1.53-3.49
		C54.86,16.24,54.92,16.12,55,15.96z"/>
	<path class="komunitas-gayam0" d="M120.35,17.86c-1.1-0.38-2.24-0.48-3.39-0.41c-0.24,0.02-0.48,0.03-0.79,0.05c1.21-2.32,2.65-4.42,4.36-6.42
		c-0.14,0-0.23,0-0.31,0c-0.84,0.01-1.67,0.03-2.51,0.03c-1.72,0.01-3.45,0.01-5.17,0.01c-0.17,0-0.29,0.05-0.39,0.18
		c-0.26,0.36-0.55,0.71-0.79,1.08c-0.54,0.86-1.07,1.72-1.57,2.59c-0.53,0.94-0.95,1.94-1.33,2.96c-0.5,1.35-0.87,2.73-1.06,4.16
		c-0.11,0.84-0.13,1.7-0.03,2.54c0.16,1.4,0.6,2.68,1.55,3.76c0.71,0.8,1.58,1.35,2.56,1.73c1.03,0.4,2.11,0.61,3.21,0.64
		c0.76,0.02,1.54,0.06,2.29-0.01c1.23-0.12,2.4-0.46,3.48-1.09c0.83-0.48,1.54-1.09,2.14-1.83c0.81-1.01,1.34-2.16,1.52-3.46
		c0.28-2-0.18-3.76-1.64-5.21C121.89,18.56,121.16,18.14,120.35,17.86z M116.91,24.13c-0.33,0.95-1.02,1.21-1.9,1.01
		c-0.47-0.11-0.76-0.48-0.9-0.94c-0.18-0.59-0.1-1.18,0.02-1.76c0.01-0.05,0.09-0.12,0.15-0.13c0.3-0.04,0.6-0.07,0.9-0.1
		c0.4-0.01,0.79,0.06,1.14,0.25C116.99,22.82,117.15,23.44,116.91,24.13z"/>
	<path class="komunitas-gayam0" d="M36.75,30.59c-0.01-0.09-0.01-0.16-0.02-0.22c-0.05-0.34-0.12-0.68-0.14-1.02c-0.05-1-0.09-2-0.1-3
		c-0.01-1.09,0.04-2.18,0.03-3.28c-0.01-1.2-0.06-2.4-0.12-3.6c-0.02-0.43-0.09-0.87-0.24-1.27c-0.32-0.92-1.03-1.51-1.89-1.92
		c-1.21-0.57-2.51-0.77-3.83-0.83c-1.55-0.06-3.09,0.02-4.62,0.33c-0.64,0.13-1.27,0.33-1.9,0.5c-0.38,0.11-0.51,0.35-0.51,0.76
		c0.02,0.95-0.02,1.91-0.03,2.86c0,0.23,0,0.46,0,0.72c0.09-0.05,0.16-0.08,0.22-0.12c0.23-0.12,0.46-0.25,0.7-0.36
		c0.89-0.39,1.83-0.65,2.79-0.78c0.68-0.09,1.38-0.15,2.06,0.04c0.58,0.16,0.92,0.52,0.78,1.19c-0.77,0.18-1.53,0.35-2.29,0.52
		c-1.33,0.3-2.65,0.65-3.86,1.31c-0.73,0.4-1.35,0.91-1.82,1.59c-0.68,0.98-0.88,2.08-0.79,3.25c0.05,0.61,0.24,1.17,0.59,1.68
		c0.5,0.75,1.21,1.23,2.04,1.53c1.78,0.65,3.6,0.63,5.42,0.19c0.52-0.13,1.01-0.34,1.52-0.52c0.15-0.05,0.23-0.04,0.25,0.12
		c0.05,0.36,0.04,0.36,0.4,0.36c1.67,0,3.35,0,5.02,0C36.53,30.61,36.63,30.6,36.75,30.59z M30.18,27.49
		c-0.45,0.06-0.9,0.12-1.35,0.14c-0.34,0.01-0.69-0.06-0.99-0.25c-0.72-0.47-0.66-1.44,0.12-1.89c0.57-0.33,1.19-0.48,1.85-0.51
		c0.25-0.01,0.51,0,0.76,0c0,0.7,0,1.39,0,2.07C30.57,27.42,30.57,27.44,30.18,27.49z"/>
	<path class="komunitas-gayam0" d="M68.27,27.61c-0.01-1.35,0.01-2.7,0.02-4.05c0.01-1.56,0.04-3.11-0.17-4.66c-0.09-0.68-0.36-1.28-0.85-1.78
		c-0.55-0.57-1.23-0.91-1.97-1.16c-1.02-0.34-2.08-0.49-3.15-0.53c-1.61-0.06-3.21,0.04-4.78,0.37c-0.58,0.12-1.16,0.31-1.73,0.49
		c-0.37,0.12-0.43,0.24-0.44,0.62c-0.02,1.15-0.03,2.31-0.04,3.46c0,0.07,0,0.13,0,0.23c0.21-0.12,0.38-0.23,0.57-0.32
		c1.07-0.53,2.2-0.84,3.38-0.97c0.63-0.07,1.27-0.1,1.89,0.08c0.48,0.14,0.77,0.51,0.76,0.96c0,0.14-0.04,0.22-0.2,0.25
		c-1.15,0.26-2.3,0.53-3.44,0.82c-0.94,0.24-1.83,0.59-2.64,1.15c-0.62,0.43-1.13,0.96-1.48,1.64c-0.43,0.84-0.57,1.74-0.53,2.67
		c0.07,1.6,0.87,2.72,2.29,3.41c0.85,0.41,1.77,0.58,2.71,0.6c1.39,0.04,2.74-0.16,4-0.77c0.24-0.11,0.29-0.07,0.29,0.19
		c0,0.18,0.07,0.27,0.27,0.27c1.5,0,3,0,4.5,0c0.27,0,0.54,0,0.81,0c0.14,0,0.2-0.04,0.17-0.2C68.34,29.49,68.28,28.55,68.27,27.61z
		 M62.36,25.2c-0.01,0.33,0,0.66,0,0.99c0,0,0,0,0,0c0,0.35,0.01,0.7-0.01,1.06c0,0.07-0.07,0.18-0.12,0.19
		c-0.78,0.18-1.57,0.32-2.36,0.06c-0.38-0.12-0.64-0.38-0.72-0.77c-0.09-0.43,0.02-0.81,0.38-1.09c0.5-0.4,1.1-0.55,1.72-0.64
		c0.29-0.04,0.59-0.03,0.89-0.05C62.33,24.93,62.37,25.02,62.36,25.2z"/>
	<path class="komunitas-gayam0" d="M100.71,11.43c-0.16,0-0.34,0.08-0.46,0.18c-0.37,0.28-0.72,0.58-1.07,0.87c-0.93,0.77-2,1.33-3.07,1.87
		c-0.14,0.07-0.17,0.15-0.17,0.29c0,1.62,0,3.24,0,4.86c0,0.06,0,0.12,0,0.21c0.64-0.21,1.17-0.57,1.68-0.95
		c0.51-0.38,1.01-0.79,1.51-1.18c0.02,0.01,0.05,0.02,0.07,0.03c0,4.27,0,8.53,0,12.81c2.43,0,4.81,0,7.23,0c0-6.33,0-12.65,0-18.97
		c-0.03-0.01-0.05-0.02-0.07-0.02C104.48,11.42,102.6,11.42,100.71,11.43z"/>
	<path class="komunitas-gayam0" d="M1.57,6.32c-0.07-0.63,0.1-1.14,0.6-1.54c0.18-0.14,0.31-0.33,0.46-0.5c0.05-0.05,0.1-0.09,0.17-0.16
		c0.12,0.21,0.21,0.38,0.31,0.55c0.55,1,1.09,2,1.64,2.99C4.79,7.71,4.85,7.78,4.9,7.78c0.58,0.01,1.15,0.01,1.76,0.01
		c-0.04-0.07-0.07-0.12-0.1-0.17C5.69,6.18,4.81,4.73,3.93,3.29c-0.1-0.17-0.14-0.28,0.02-0.46c0.8-0.87,1.59-1.75,2.38-2.62
		C6.39,0.15,6.43,0.09,6.51,0c-0.63,0-1.21,0-1.8,0.01c-0.07,0-0.16,0.07-0.22,0.13C3.64,1.13,2.78,2.12,1.93,3.12
		c-0.1,0.11-0.19,0.22-0.29,0.33C1.62,3.44,1.6,3.44,1.58,3.43c0-1.14,0-2.28,0-3.42c-0.49,0-0.94,0-1.4,0c0,2.59,0,5.18,0,7.76
		c0.47,0,0.92,0,1.4,0C1.58,7.28,1.62,6.79,1.57,6.32z"/>
	<path class="komunitas-gayam0" d="M33.26,7.53c0.01-1.04,0.01-2.07,0.03-3.11c0.01-0.35,0.07-0.71,0.34-0.98c0.28-0.29,0.63-0.38,1.01-0.26
		c0.35,0.11,0.41,0.42,0.42,0.73c0.02,0.49,0.04,0.98,0.04,1.47c0.01,0.73,0,1.47,0,2.2c0,0.1-0.02,0.2,0.14,0.2
		c0.39-0.01,0.79,0,1.21,0c0-0.11,0-0.21,0-0.3c0.01-1.04,0.02-2.07,0.05-3.11c0.01-0.34,0.08-0.67,0.33-0.94
		c0.27-0.29,0.6-0.36,0.97-0.25c0.31,0.09,0.39,0.36,0.43,0.65c0.02,0.15,0.04,0.3,0.04,0.45c0.01,1.09,0.01,2.19,0.01,3.28
		c0,0.07,0.01,0.13,0.01,0.2c0.45,0,0.89,0,1.33,0c0.01-0.04,0.01-0.07,0.01-0.1c-0.01-1.33,0-2.67-0.02-4
		c-0.02-0.81-0.44-1.36-1.15-1.56c-0.77-0.21-1.41,0.05-1.94,0.62c-0.06,0.07-0.12,0.14-0.19,0.21c-0.63-1.15-2.17-1.24-3.16,0.02
		c0-0.25,0.01-0.45,0-0.65c0-0.05-0.05-0.13-0.08-0.13c-0.38-0.01-0.77-0.01-1.15-0.01c0,1.89,0,3.75,0,5.61c0.45,0,0.88,0,1.35,0
		C33.26,7.68,33.26,7.61,33.26,7.53z"/>
	<path class="komunitas-gayam0" d="M21.28,3.33c-0.92-1.65-3.1-1.59-4.13-0.56c-0.98,0.99-1.05,2.61-0.49,3.74c0.5,0.99,1.36,1.41,2.44,1.4
		c0.69-0.01,1.3-0.26,1.78-0.77c0.58-0.61,0.83-1.35,0.83-2.26C21.71,4.37,21.57,3.84,21.28,3.33z M20.07,6.1
		c-0.26,0.42-0.62,0.66-1.13,0.63c-0.5-0.03-0.86-0.3-1.05-0.75C17.61,5.33,17.62,4.66,17.87,4c0.19-0.51,0.67-0.81,1.2-0.79
		c0.5,0.02,0.97,0.38,1.12,0.9c0.08,0.27,0.11,0.56,0.17,0.85C20.32,5.36,20.28,5.75,20.07,6.1z"/>
	<path class="komunitas-gayam0" d="M108.53,7.21c0.05,0.17,0.12,0.37,0.18,0.57c0.43,0,0.85,0,1.3,0c-0.05-0.15-0.1-0.29-0.14-0.42
		c-0.17-0.55-0.13-1.12-0.14-1.68c-0.01-0.72,0-1.44-0.03-2.16c-0.02-0.55-0.24-1.01-0.77-1.22c-0.92-0.37-1.86-0.39-2.76,0.05
		c-0.5,0.25-0.72,0.73-0.87,1.26c0.42,0.08,0.81,0.16,1.21,0.24c0.03-0.07,0.05-0.14,0.08-0.2c0.1-0.2,0.22-0.37,0.44-0.44
		c0.32-0.1,0.64-0.1,0.96,0c0.34,0.11,0.46,0.34,0.42,0.82c-0.02,0.22-0.27,0.16-0.41,0.24c-0.01,0-0.01,0-0.02,0
		c-0.59,0.15-1.19,0.28-1.77,0.46c-1.29,0.42-1.3,2.02-0.63,2.66c0.57,0.54,1.25,0.64,1.96,0.37C107.89,7.65,108.2,7.41,108.53,7.21
		z M106.74,6.69c-0.32-0.29-0.38-1.02,0.19-1.21c0.48-0.15,0.96-0.28,1.51-0.44c-0.03,0.41-0.02,0.76-0.09,1.1
		C108.22,6.81,107.23,7.13,106.74,6.69z"/>
	<path class="komunitas-gayam0" d="M70.33,7.77c0.01-0.02,0.02-0.02,0.02-0.03c-0.01-1.38-0.01-2.77-0.04-4.15c-0.01-0.45-0.18-0.86-0.55-1.16
		c-0.74-0.59-1.86-0.51-2.55,0.18c-0.11,0.11-0.22,0.24-0.37,0.4c0-0.32,0-0.57,0-0.84c-0.42,0-0.82,0-1.23,0c0,1.87,0,3.73,0,5.6
		c0.45,0,0.88,0,1.33,0c0-0.08,0-0.15,0-0.22c0-0.99,0-1.98,0.02-2.97c0.01-0.42,0.05-0.85,0.39-1.16c0.31-0.27,0.66-0.37,1.06-0.24
		c0.35,0.11,0.5,0.39,0.54,0.74c0.03,0.27,0.04,0.55,0.04,0.83c0.01,0.93,0,1.85,0,2.78c0,0.07,0,0.15,0,0.23
		C69.46,7.77,69.9,7.77,70.33,7.77z"/>
	<path class="komunitas-gayam0" d="M50.29,6.7c0.07,0.36,0.27,0.65,0.57,0.88c0.73,0.53,1.73,0.38,2.35-0.16c0.15-0.13,0.31-0.27,0.46-0.4
		c0,0.24,0,0.5,0,0.77c0.43,0,0.82,0,1.23,0c0-1.87,0-3.73,0-5.61c-0.38,0-0.74,0.01-1.1,0c-0.2-0.01-0.24,0.06-0.24,0.25
		c-0.01,1.13-0.03,2.27-0.06,3.4c-0.01,0.4-0.23,0.69-0.57,0.88c-0.55,0.3-1.19,0.08-1.34-0.46c-0.05-0.18-0.06-0.37-0.06-0.55
		c-0.01-1.09-0.01-2.18-0.01-3.28c0-0.07,0-0.13,0-0.21c-0.46,0-0.89,0-1.34,0c0,0.07-0.01,0.12-0.01,0.17c0,1.11-0.01,2.23,0,3.34
		C50.2,6.03,50.23,6.37,50.29,6.7z"/>
	<path class="komunitas-gayam0" d="M95.08,6.66c-0.49,0.14-0.69-0.01-0.69-0.51c0-0.89,0-1.78,0-2.68c0-0.05,0.01-0.09,0.02-0.16
		c0.31,0,0.61,0,0.92,0c0-0.39,0-0.75,0-1.14c-0.31,0-0.61,0-0.93,0c0-0.66,0-1.29,0-1.98c-0.45,0.28-0.86,0.53-1.26,0.79
		c-0.06,0.04-0.09,0.15-0.09,0.23c-0.01,0.31,0,0.62,0,0.95c-0.22,0-0.43,0-0.64,0c0,0.39,0,0.76,0,1.15c0.15,0,0.29,0.01,0.42,0
		c0.18-0.02,0.22,0.06,0.22,0.22c0,1,0,2,0.01,3.01c0.01,0.54,0.14,1.04,0.72,1.25c0.53,0.2,1.06,0.11,1.57-0.08
		c0.04-0.01,0.08-0.07,0.08-0.1c-0.03-0.34-0.06-0.68-0.09-1.03C95.22,6.62,95.15,6.64,95.08,6.66z"/>
	<path class="komunitas-gayam0" d="M80.97,7.56c0,0.07,0.01,0.15,0.01,0.22c0.46,0,0.89,0,1.33,0c0-1.87,0-3.73,0-5.61c-0.39,0-0.75,0.01-1.12,0
		c-0.18-0.01-0.23,0.05-0.23,0.23C80.97,4.12,80.97,5.84,80.97,7.56z"/>
	<path class="komunitas-gayam0" d="M82.31,0.01c-0.44,0-0.87,0-1.33,0c0,0.45,0,0.89,0,1.33c0.45,0,0.89,0,1.33,0
		C82.31,0.89,82.31,0.45,82.31,0.01z"/>
</g>
</svg>
