<?xml version="1.0" encoding="utf-8"?>
<svg version="1.1" xmlns="http://www.w3.org/2000/svg" xmlns:xlink="http://www.w3.org/1999/xlink" x="0px" y="0px" viewBox="0 0 332.85 63" style="enable-background:new 0 0 332.85 63;" xml:space="preserve">
<style type="text/css">
	.rembug0{fill:#00A18D;stroke:#050404;stroke-width:2;stroke-miterlimit:10;}
	.rembug1{fill:#010101;}
	.rembug2{clip-path:url(#SVGID_00000070108942499775979740000015471517716520400808_);}
</style>
<path class="rembug0" d="M326.28,59.14H62.91c-3.07,0-5.56-2.49-5.56-5.56V20.71c0-3.07,2.49-5.56,5.56-5.56h263.37
	c3.07,0,5.56,2.49,5.56,5.56v32.87C331.85,56.65,329.36,59.14,326.28,59.14z"/>
<g>
	<path class="rembug1" d="M79.3,46.91V27.37h8.46c1.75,0,3.26,0.28,4.52,0.85c1.27,0.57,2.24,1.38,2.93,2.44
		c0.69,1.06,1.03,2.33,1.03,3.8c0,1.45-0.34,2.7-1.03,3.75c-0.69,1.05-1.67,1.86-2.93,2.41c-1.27,0.56-2.77,0.84-4.52,0.84h-5.95
		l2.01-1.98v7.43H79.3z M83.82,39.99l-2.01-2.12h5.69c1.4,0,2.44-0.3,3.13-0.91c0.69-0.6,1.03-1.44,1.03-2.5
		c0-1.08-0.34-1.92-1.03-2.51c-0.69-0.6-1.73-0.89-3.13-0.89h-5.69l2.01-2.15V39.99z M91.72,46.91l-4.89-7.09h4.83l4.94,7.09H91.72z
		"/>
	<path class="rembug1" d="M102.22,43.28h10.64v3.63H97.72V27.37h14.77V31h-10.27V43.28z M101.88,35.24h9.41v3.52h-9.41V35.24z"/>
	<path class="rembug1" d="M114.36,46.91V27.37h3.74l8.32,13.79h-1.98l8.18-13.79h3.71l0.06,19.54h-4.24l-0.03-13.04h0.78l-6.53,10.97
		h-2.04l-6.67-10.97h0.95v13.04H114.36z"/>
	<path class="rembug1" d="M138.93,46.91V27.37h9.55c2.46,0,4.3,0.47,5.54,1.4c1.24,0.93,1.86,2.16,1.86,3.69c0,1.02-0.25,1.91-0.75,2.67
		c-0.5,0.75-1.19,1.33-2.07,1.74c-0.88,0.41-1.88,0.61-3.02,0.61l0.53-1.14c1.23,0,2.32,0.2,3.27,0.6c0.95,0.4,1.69,0.99,2.22,1.77
		c0.53,0.78,0.79,1.74,0.79,2.88c0,1.67-0.66,2.98-1.98,3.92c-1.32,0.94-3.27,1.41-5.83,1.41H138.93z M143.42,43.51h5.28
		c1.17,0,2.06-0.19,2.67-0.57c0.6-0.38,0.91-0.99,0.91-1.83c0-0.82-0.3-1.43-0.91-1.83c-0.6-0.4-1.49-0.6-2.67-0.6h-5.61v-3.29h4.83
		c1.1,0,1.94-0.19,2.53-0.57c0.59-0.38,0.88-0.96,0.88-1.75c0-0.76-0.29-1.33-0.88-1.72c-0.59-0.38-1.43-0.57-2.53-0.57h-4.49V43.51
		z"/>
	<path class="rembug1" d="M166.87,47.25c-2.77,0-4.94-0.77-6.5-2.32c-1.56-1.54-2.34-3.75-2.34-6.62V27.37h4.52v10.78
		c0,1.86,0.38,3.2,1.14,4.02c0.76,0.82,1.83,1.23,3.21,1.23s2.45-0.41,3.21-1.23c0.76-0.82,1.14-2.16,1.14-4.02V27.37h4.47v10.94
		c0,2.87-0.78,5.07-2.34,6.62C171.81,46.48,169.64,47.25,166.87,47.25z"/>
	<path class="rembug1" d="M187.53,47.25c-1.54,0-2.96-0.25-4.26-0.74c-1.29-0.49-2.42-1.2-3.38-2.11c-0.96-0.91-1.7-1.98-2.23-3.21
		c-0.53-1.23-0.8-2.58-0.8-4.05c0-1.47,0.26-2.82,0.8-4.05c0.53-1.23,1.28-2.3,2.25-3.21c0.97-0.91,2.1-1.61,3.41-2.11
		c1.3-0.49,2.74-0.74,4.3-0.74c1.73,0,3.29,0.29,4.68,0.87c1.39,0.58,2.55,1.42,3.5,2.51l-2.9,2.68c-0.71-0.74-1.48-1.3-2.32-1.66
		c-0.84-0.36-1.75-0.54-2.74-0.54c-0.95,0-1.81,0.15-2.6,0.45c-0.78,0.3-1.46,0.73-2.02,1.28s-1,1.22-1.31,1.98
		c-0.31,0.76-0.46,1.61-0.46,2.54c0,0.91,0.15,1.75,0.46,2.51c0.31,0.76,0.74,1.43,1.31,2c0.57,0.57,1.24,1,2.01,1.3
		s1.62,0.45,2.55,0.45c0.89,0,1.76-0.14,2.61-0.43c0.85-0.29,1.67-0.78,2.47-1.47l2.57,3.27c-1.06,0.8-2.29,1.41-3.7,1.84
		C190.32,47.03,188.92,47.25,187.53,47.25z M191.3,44.18v-7.34h4.13v7.93L191.3,44.18z"/>
	<path class="rembug1" d="M203.33,46.91V27.37h9.55c2.46,0,4.3,0.47,5.54,1.4c1.24,0.93,1.86,2.16,1.86,3.69c0,1.02-0.25,1.91-0.75,2.67
		c-0.5,0.75-1.19,1.33-2.07,1.74c-0.88,0.41-1.88,0.61-3.01,0.61l0.53-1.14c1.23,0,2.32,0.2,3.27,0.6s1.69,0.99,2.22,1.77
		c0.53,0.78,0.8,1.74,0.8,2.88c0,1.67-0.66,2.98-1.98,3.92c-1.32,0.94-3.27,1.41-5.83,1.41H203.33z M207.82,43.51h5.28
		c1.17,0,2.06-0.19,2.67-0.57c0.6-0.38,0.91-0.99,0.91-1.83c0-0.82-0.3-1.43-0.91-1.83c-0.61-0.4-1.49-0.6-2.67-0.6h-5.61v-3.29
		h4.83c1.1,0,1.94-0.19,2.53-0.57c0.59-0.38,0.88-0.96,0.88-1.75c0-0.76-0.29-1.33-0.88-1.72c-0.59-0.38-1.43-0.57-2.53-0.57h-4.49
		V43.51z"/>
	<path class="rembug1" d="M231.27,47.25c-2.77,0-4.94-0.77-6.51-2.32c-1.56-1.54-2.34-3.75-2.34-6.62V27.37h4.52v10.78
		c0,1.86,0.38,3.2,1.14,4.02c0.76,0.82,1.83,1.23,3.21,1.23s2.45-0.41,3.21-1.23c0.76-0.82,1.14-2.16,1.14-4.02V27.37h4.47v10.94
		c0,2.87-0.78,5.07-2.34,6.62C236.21,46.48,234.04,47.25,231.27,47.25z"/>
	<path class="rembug1" d="M242.49,46.91V27.37h8.88c2.12,0,3.99,0.4,5.61,1.21c1.62,0.81,2.88,1.94,3.8,3.39
		c0.91,1.45,1.37,3.17,1.37,5.16c0,1.97-0.46,3.69-1.37,5.15s-2.18,2.6-3.8,3.41c-1.62,0.81-3.49,1.21-5.61,1.21H242.49z
		 M247.02,43.2h4.13c1.3,0,2.43-0.25,3.39-0.74c0.96-0.49,1.7-1.2,2.23-2.11c0.53-0.91,0.8-1.98,0.8-3.21c0-1.25-0.27-2.32-0.8-3.22
		c-0.53-0.9-1.27-1.6-2.23-2.09c-0.96-0.49-2.09-0.74-3.39-0.74h-4.13V43.2z"/>
	<path class="rembug1" d="M260.61,46.91l8.71-19.54h4.47l8.74,19.54h-4.75l-7.15-17.25h1.79l-7.17,17.25H260.61z M264.97,42.73l1.2-3.43
		h10.05l1.23,3.43H264.97z"/>
	<path class="rembug1" d="M286.13,46.91v-7.98l1.03,2.74l-8.6-14.29h4.8l6.59,10.97h-2.76l6.62-10.97h4.44l-8.6,14.29l1-2.74v7.98
		H286.13z"/>
	<path class="rembug1" d="M294.28,46.91l8.71-19.54h4.47l8.74,19.54h-4.75l-7.15-17.25h1.79l-7.17,17.25H294.28z M298.63,42.73l1.2-3.43
		h10.05l1.23,3.43H298.63z"/>
</g>
<g>
	<defs>
		<rect id="SVGID_1_" width="72.69" height="63"/>
	</defs>
	<clipPath id="SVGID_00000137839360838360493400000000136601665306723991_">
		<use xlink:href="#SVGID_1_"  style="overflow:visible;"/>
	</clipPath>
	<g style="clip-path:url(#SVGID_00000137839360838360493400000000136601665306723991_);">
		<g>
			<path class="rembug1" d="M27.26,4.52c-1.28,0.35-2.5,2.83-2.64,7.43c-0.14,4.6,0.09,9.3,0.05,9.76c0,0-1.65,0.45-1.37,2.88
				c0.28,2.43,0.94,7.48,0.9,8.74c-0.05,1.26,0.26,1.97,0.42,2.33c0.05,0.1-1.09,0.25-1.13,0.91c0,0,0.61,0.76,0.76,0.91
				c0,0,0.04,0.33,0.1,0.54c0.07,0.21,0.35,0.22,0.4,0.33c0.05,0.1-0.13,0.23-0.1,0.36c0.03,0.13,0.28,0.37,0.52,0.45
				s0.41,0.28,0.71,0.15c0.29-0.13,0.6-0.55,0.78-0.6c0.18-0.06,0.85,0,0.85,0s-0.18,0.02-0.23,0.31c-0.04,0.29,0.27,0.21,0.24,0.5
				c-0.03,0.29-0.42,0.58-0.86,2.46c0,0-0.29,0.07-0.38,0.8c-0.09,0.73,0.02,0.72-0.34,0.98c-0.36,0.26-0.43,0.92-0.33,1.64
				c0,0,0.15-0.02,0.07,0.28s-0.12,0.38-0.2,0.69c-0.08,0.3,0.1,0.31-0.2,0.67c-0.29,0.36-0.37,0.45-0.35,0.55
				c0.02,0.09,0.23,0.44,0,0.58c-0.23,0.14-0.29,1.08-0.35,1.81c-0.05,0.73-0.07,2.48,0.07,3.62c0,0,0.04,1.53,0.19,1.88
				c0.15,0.35,0.26,0.68,0.35,1.02s0.11,1.15,0.22,1.37c0.11,0.21-0.08,0.12,0.06,0.45c0.14,0.33,0.18,0.41,0.22,0.74
				c0.03,0.33,0.11,1.29,0.12,1.91c0.02,0.63,0.05,0.84,0.14,1.11c0.09,0.26,0.39,0.78,0.45,1.14c0.06,0.36,0.17,1.15,0.23,1.75
				c0.06,0.59,0.14,1.17,0.28,1.63c0.14,0.46,0.46,1.27,0.57,1.52s0.08,2.16,0.29,2.43c0.22,0.26,0.31,0.45,0.31,0.64
				c0,0.2-0.17,0.82-0.02,1.12c0.15,0.3,0.34,0.4,0.26,0.58c-0.08,0.18-0.25,0.13-0.26,0.43c-0.02,0.3,0.02,1.35,0.18,1.65
				c0.17,0.3-0.09,0.33-0.11,0.73c-0.02,0.4,0.09,0.91,0.14,1.17c0.05,0.26-0.09,0.31-0.09,0.86c0,0.54-0.08,0.73,0.03,0.89
				c0.11,0.17,0.22,0.35,0.23,0.79c0.02,0.45,0.08,1.95,0.12,2.52c0.05,0.58,0.18,2.18,0.31,3.02c0.12,0.84,0.42,1.81,0.45,2.16
				s0.11,0.89,0.15,1.16c0.05,0.26-0.05,1.57-0.08,2.19c-0.03,0.63,0.02,2.19,0.11,2.46c0.09,0.26,0.74,0.69,0.91,1.04
				c0.17,0.35,0.05,0.63,0.09,0.94c0.05,0.31,0.06,0.66,0.11,0.89c0.05,0.23-0.03,0.48,0.08,0.58c0.11,0.1,0.11,0.16,0.03,0.3
				c-0.08,0.13-0.03,0.56-0.23,0.91c-0.2,0.35-0.77,2.18-0.97,2.41c-0.2,0.23-0.32,0.26-0.43,0.35s-0.11,0.26-0.15,0.35
				c-0.05,0.08-0.29,0.16-0.26,0.35c0.03,0.18,0.15,0.3,0.28,0.45c0.12,0.15,0.09,0.35,0.14,0.53c0.05,0.18,0.12,0.43,0.22,0.48
				s4.21,0,4.21,0s0.46,0,0.52-0.12c0.06-0.12,0.09-2.59,0.29-3.25c0.2-0.66,0.4-1.42,0.59-1.62c0.18-0.2,0.28-0.35,0.29-0.63
				c0.02-0.28-0.2-1.35-0.34-1.62c0,0,0.12-0.4,0.22-0.68c0.09-0.28,0.12-0.53,0.35-0.74c0.23-0.21,0.52-0.31,0.46-0.58
				c-0.06-0.26-0.25-1.5-0.35-1.85c-0.11-0.35-1-1.67-1.05-2.11c-0.05-0.45,0.05-0.87,0.11-1.34c0.06-0.46,0.17-2.77,0.09-3.46
				c-0.08-0.69-0.23-4.39-0.25-4.6c-0.02-0.21-0.17-0.26-0.14-0.41c0.03-0.15,0.03-0.08,0.03-0.43s-0.15-0.46-0.18-0.64
				c-0.03-0.18,0.14-0.36,0.15-0.53c0.02-0.17,0.03-0.63-0.11-0.78c-0.14-0.15-0.22-0.28-0.12-0.43c0.09-0.15,0.22-0.31,0.09-0.46
				s-0.29-0.12-0.11-0.35c0.18-0.23,0.31-0.68,0.19-0.96c-0.12-0.28-0.32-0.26-0.31-0.59s0.14-0.53,0.23-0.68s0.18-1.01,0.15-1.44
				c-0.03-0.43-0.09-0.73-0.05-0.96c0.05-0.23,0.02-0.61-0.03-0.91c-0.05-0.3-0.08-1.67-0.09-2.08c-0.02-0.41-0.03-0.43-0.09-0.68
				c-0.06-0.25-0.31-0.4-0.23-0.56c0.08-0.16,0.08-0.05,0.11-0.43c0.03-0.38,0.14-0.82,0.03-1.07c-0.11-0.25-0.29-0.28-0.26-0.61
				c0.03-0.33,0.09-1.35,0.08-1.58c-0.02-0.23,0.11-1.32,0.11-1.53c0-0.21-0.2-0.73-0.08-0.91c0.12-0.18,0.23-0.3,0.23-0.46
				c0-0.17-0.25-1.14-0.23-1.4c0.02-0.26,0-0.69,0.02-0.96c0.02-0.26-0.15-0.38,0.02-0.58c0.17-0.2,0.29-0.15,0.26-0.35
				c-0.03-0.2-0.15-0.23-0.14-0.49c0.02-0.26,0.08-0.51,0.14-0.31c0.06,0.2,0.57,2.64,0.69,3.09c0.12,0.45,0.48,2.95,0.63,3.6
				c0.15,0.64,0.31,3.27,0.39,3.56c0.08,0.3,0.25,0.21,0.28,0.54c0.03,0.33,0.32,2.54,0.43,3.05c0.11,0.51,0.97,4.26,1.09,4.44
				c0.12,0.18,0.26,0.17,0.35,0.51c0.09,0.35,0.2,0.74,0.26,1.06c0.06,0.31,0.22,0.43,0.4,0.66c0.18,0.23,0.11,0.31,0.12,0.64
				c0.02,0.33,0.14,0.74,0.28,0.99s0.25,0.41,0.32,0.81c0.08,0.4,0.26,0.99,0.34,1.24c0.08,0.25,0.65,2.14,0.77,2.51
				s0.74,2.23,0.88,2.57c0.14,0.35,0.94,2.26,1.06,2.52c0.12,0.26,0.2,2.94,0.23,3.32c0.03,0.38,0.09,1.35,0.37,1.73
				c0.28,0.38,0.89,0.91,0.97,1.04c0.08,0.13,0.23,0.18,0.14,0.4c-0.09,0.21-0.25,0.51-0.09,0.78c0.15,0.26,0.4,0.41,0.4,0.73
				c0,0.31,0.17,0.51,0.26,0.66c0.09,0.15,0.12,0.48,0.14,0.73c0.02,0.25,0.11,0.36,0.15,0.63c0.05,0.26,0.08,1.5-0.02,1.8
				c-0.09,0.3-0.42,0.92-0.29,1.37c0.12,0.45,0.34,0.46,0.35,0.68c0.02,0.21,0.37,0.71,0.52,0.74c0.15,0.03,1.89-0.33,2.22-0.45
				c0.32-0.12,0.82-0.45,0.92-0.36c0.11,0.08,0.2,0.56,0.2,0.56s0.63-0.31,0.72-0.36c0.09-0.05-0.17-0.38-0.02-0.49
				c0.15-0.12,0.32,0.08,0.34-0.3c0.02-0.38-0.09-0.76-0.12-0.87c-0.03-0.12-0.06-0.25,0.02-0.36c0.08-0.12-0.22-1.75-0.18-2.28
				c0.03-0.53,0.06-1.42-0.11-1.73c-0.17-0.31-0.31-0.35-0.37-0.56c-0.06-0.21-0.02-0.23-0.05-0.43c-0.03-0.2-0.06-0.45-0.03-0.61
				c0.03-0.17,0.18-0.78,0.03-0.92c-0.15-0.15-0.28-0.05-0.25-0.35c0.03-0.3,0.15-0.36,0.11-0.51c-0.05-0.15-0.11-1.12-0.45-1.78
				c-0.34-0.66-0.32-0.71-0.4-0.91c-0.08-0.2-0.63-2.13-0.63-2.52c0-0.4-0.22-0.81-0.15-1.24c0.06-0.43-0.14-2.56-0.34-3.58
				c-0.2-1.02-1.08-3.4-1.11-3.76c-0.03-0.36-0.09-0.4-0.14-0.69c-0.05-0.3-0.48-0.84-0.43-1.07c0.05-0.23-0.08-0.58-0.23-0.79
				c-0.15-0.21-0.17-0.54-0.15-0.68c0.02-0.13-0.09-0.18-0.15-0.43c-0.06-0.25,0-0.4-0.03-0.45c-0.03-0.05-0.69-0.41-0.71-0.73
				c-0.02-0.31,0-0.86-0.03-1.11c-0.03-0.25-0.18-0.45-0.25-0.59c-0.06-0.15-0.03-0.31-0.22-0.41c-0.18-0.1-0.37-0.33-0.37-0.56
				c0-0.23,0.09-0.53,0.18-0.69c0.09-0.16-0.03-0.97-0.12-1.2c-0.09-0.23-0.05-0.35-0.09-0.51c-0.05-0.17-0.06,0.05-0.28-0.21
				c-0.22-0.26-0.31-0.36-0.23-0.89c0.08-0.53,0.19-1.62,0.23-2.28c0.05-0.66-0.09-1.58-0.03-2.14c0.06-0.56-0.14-0.78,0.08-1.04
				c0.22-0.26,0.26-1.22,0.32-1.62c0.06-0.4,0.03-0.97,0.08-1.27c0.05-0.3,0.02-0.28,0.12-0.78c0.11-0.49,0.31-2.34,0.14-3.66
				c-0.17-1.32-0.34-2.26-0.28-2.43c0.06-0.17,0.09-0.4,0.08-0.46c-0.02-0.07-0.49-2.36-0.32-2.59c0.17-0.23,0.22-0.2,0.18-0.51
				c-0.03-0.31-0.11-0.76-0.2-0.86c-0.09-0.1-0.03-0.28-0.02-0.35c0.02-0.07-0.17-0.25-0.09-0.36s0.08-0.13,0.15-0.23
				c0.08-0.1,0.08-0.1,0.08-0.1l0.97,0.41c0,0,0.45-0.4,0.03-1.11l-1.06-0.43c0,0-0.03-0.1-0.02-0.3c0.02-0.2-0.09-0.31-0.12-0.48
				c-0.03-0.16-0.08-0.2,0-0.43c0.08-0.23,0.09-0.4-0.03-0.71c-0.12-0.31-0.12-0.31-0.08-0.54c0.05-0.23-0.12-0.51-0.09-0.73
				c0.03-0.21,0.15-0.25,0.03-0.48c-0.12-0.23-0.23-0.03-0.15-0.38c0.08-0.35,0-0.23,0.11-0.48c0.11-0.25-0.08-1.37-0.12-1.63
				c-0.05-0.26-0.03-0.79-0.11-1.06c-0.08-0.26-0.11-0.18-0.26-0.38c-0.15-0.2-0.22-0.17-0.09-0.35c0.12-0.18,0.12-0.38,0.03-0.59
				c-0.09-0.21-0.17-0.2-0.08-0.51c0.09-0.31,0.17-0.49,0.26-0.66c0.09-0.17,0.22-0.15,0.12-0.38c-0.09-0.23-0.29,0-0.08-0.36
				c0.22-0.36,0.51-0.35,0.65-0.61c0.14-0.26,0.69-3.04,0.94-3.65c0.25-0.61,0.96-3.35,0.83-4.78c-0.12-1.44-0.09-2.95,0.02-3.38
				c0.11-0.43,0.28-2.11,0.02-2.84c-0.26-0.73-0.97-2.19-2.87-1.96l-0.74,0.12c0,0,0.74-0.43,0.94-1.01c0,0-0.22,0.38-0.91,0.71
				c0,0,0.57-0.31,0.65-1.35c0,0-0.74,1.6-1.93,1.7c-1.08,0.09-1.92-0.26-2.18-0.45c-0.02-0.02-0.04-0.03-0.06-0.05
				c-0.15-0.16,0.71,0.46,1.26,0.12c0,0-1.09-0.03-1.42-0.69l0.82,0.07c0,0-1.39-0.53-1.39-1.22c0-0.69,0.42-1.68,0.23-2.59
				c-0.18-0.91-0.75-3.99-1.63-5.3c-0.88-1.3-3.13-5.54-7.21-4.83C28.49,3.61,27.86,3.69,27.26,4.52z"/>
		</g>
		<g>
			<path class="rembug1" d="M17.03,5.02c0,0,0.26-0.08,0.32-0.2c0,0-0.25,0.1-0.34,0.03c0,0,0.52-0.26,0.48-0.45
				c0,0-0.32,0.36-0.49,0.25c0,0,0.74-0.79,0.8-1.63c0.06-0.84,0.05-0.78,0.05-0.78s-0.25,0.26-0.29,0.2c-0.05-0.07,0-0.31,0-0.31
				l-0.08,0.05c0,0-0.05-0.23-0.11-0.33c-0.06-0.1-0.14-0.03-0.14-0.03l-0.15-0.38c0,0-0.03,0.43-0.22,0.59
				c-0.18,0.16-0.03-0.68-0.03-0.68s-0.17,0.78-0.32,0.84c-0.15,0.07-0.25-0.36-0.25-0.36s0.08,0.35-0.34,0.4
				c-0.42,0.05-0.85-0.03-1.11-0.15s-0.55-0.13-0.79-0.12c-0.23,0.02-0.85,0.16-1.06,0.23c-0.22,0.07-0.88,0.03-1.2,0.02
				c-0.32-0.02-0.72,0-0.96,0.13c-0.23,0.13-0.65,0.08-0.92,0.18C9.6,2.63,9.39,2.59,9.2,2.79S8.88,3.12,8.8,3.24
				C8.73,3.35,8.56,3.58,8.48,3.6C8.4,3.62,8.45,3.21,8.36,3.25C8.26,3.3,8.17,3.57,8.08,3.72C7.99,3.87,7.88,4,7.88,4
				S7.66,3.6,7.63,3.67c-0.03,0.07,0,0.25-0.03,0.41C7.57,4.24,7.34,3.91,7.34,3.91s0.2,0.36,0.17,0.53
				C7.48,4.61,7.39,4.43,7.22,4.36C7.05,4.29,7.09,4.29,7.14,4.51C7.19,4.72,7.28,5,7.23,5.02C7.19,5.04,6.75,4.56,6.71,4.59
				C6.66,4.62,6.62,4.87,6.69,4.95c0.08,0.08-0.06,0.26-0.26,0.43C6.23,5.55,6.32,5.6,6.4,5.61c0.08,0.02-0.06,0.23-0.2,0.48
				C6.06,6.34,6.63,5.86,6.69,5.91c0.06,0.05-0.8,0.87-0.8,0.87s0.65-0.46,0.63-0.4C6.51,6.46,5.95,7.15,6,7.2
				c0.05,0.05,0.46-0.46,0.45-0.31C6.43,7.03,6.28,7.51,6.26,7.58C6.25,7.64,6.48,7.22,6.52,7.3c0.05,0.08,0.02,0.58-0.03,0.69
				C6.45,8.11,6.25,8.57,6.4,8.37c0.15-0.2,0.29,0.2,0.28,0.35C6.66,8.87,6.6,9.61,6.58,9.67c-0.02,0.07,0.17-0.15,0.18,0
				c0.02,0.15,0.03,0.4,0.08,0.56C6.89,10.4,6.91,10.47,7,10.6c0.09,0.13,0.18,0.23,0.2,0.41c0.02,0.18,0.02,0.25,0.12,0.43
				c0.11,0.18,0.25,0.2,0.22,0.33c-0.03,0.13,0.05,0.45,0.12,0.53c0.08,0.08,0.12,0.16,0.22,0.31c0.09,0.15,0.02,0.26,0.09,0.33
				c0.08,0.07,0.11,0.13,0.2,0.23c0.09,0.1,0.05,0.12,0.12,0.21c0.08,0.1,0.08,0.23,0.12,0.31c0.05,0.08,0.09,0.18,0.14,0.26
				c0.05,0.08,0,0.08,0.08,0.2c0.08,0.12,0.06,0,0.12,0.16c0.06,0.17,0.26,0.26,0.31,0.33c0.05,0.07,0.12-0.02,0.11,0.03
				c-0.02,0.05-0.23,0.83-0.23,0.83s-0.56-0.48-0.96-0.41c-0.4,0.07-0.66,0.56-0.72,1.29c0,0-2.9,2.05-4.07,3.47
				c0,0-1.54,1.96-1.94,3.37c-0.4,1.4-0.29,1.39-0.28,1.55c0.02,0.16,0.39,0.81,0.35,1.53c-0.03,0.73-0.15,2.19-0.14,2.72
				c0.02,0.53-0.14,3.27-0.14,3.42l0.09,0.12c0,0,0.02,1.5,0.14,2.46c0.12,0.96,0.43,1.63,1.36,2.43c0,0,0.02,1.2,0.05,2.19
				c0.03,0.99,0.45,8.76,0.4,9.06c-0.05,0.3-0.23,1.49-0.2,1.95c0.03,0.46-0.05,1.53-0.12,1.82c-0.08,0.28-0.2,0.83-0.2,0.96
				c0,0.13,0.37,0.31,0.37,0.31s0.05,0.3-0.03,0.64c-0.08,0.35,0.09,1.44,0.17,1.49c0.08,0.05,0.2-0.16,0.2-0.1s0.03,0.76,0.09,1.01
				c0.06,0.25,0.32,1.62,0.49,2.15c0.17,0.53,0.32,2.11,0.48,2.21c0.15,0.1,0.31,0.05,0.29,0.3c-0.02,0.25-0.15,0.53-0.08,0.97
				c0.08,0.45,0.09,0.86,0.26,1.17c0.17,0.31,0.35,0.26,0.32,0.64c-0.03,0.38-0.17,0.3-0.15,0.63C5,65.17,4.97,65.01,5.06,65.3
				c0.09,0.3,0.23-0.46,0.03,0.41c-0.2,0.87-0.28,0.74-0.15,1.14c0.12,0.4,0.15,0.46,0.22,0.58c0.06,0.12,0.18-0.07,0.18-0.07
				s-0.09,0.31-0.08,0.66c0.02,0.35-0.03,0.35,0.08,0.87c0.11,0.53,0.22-0.12,0.23,0.76c0.02,0.87-0.12,0.97-0.17,1.17
				c-0.05,0.2-0.18,0.07-0.2,0.41c-0.02,0.35,0.06,0.38,0.18,0.69c0.12,0.31,0.2,0.26,0.12,0.53c-0.08,0.26-0.03,0.73-0.18,0.86
				c-0.15,0.13-0.42,0.15-0.35,0.38c0.06,0.23,0.11,0.28,0.12,0.68c0.02,0.4-0.18,2.38-0.28,2.54s-0.25,0.54-0.25,0.83
				c0,0.28,0.08,0.28,0.08,0.66c0,0.38,0,0.35-0.03,0.96c-0.03,0.61-0.12,2.1-0.19,2.64c-0.06,0.54-0.39,2.38-0.42,2.57
				c-0.03,0.2-0.12,1.96-0.15,2.33c-0.03,0.36-0.02,1.37-0.02,1.58c0,0.21,0.09,0.23,0.11,0.54c0.02,0.31-0.05,1.4-0.05,1.98
				c0,0.58-0.06,1.88-0.06,2.61c0,0.73-0.11,2.1-0.05,2.34c0.06,0.25,0.14,0.46,0.48,0.58c0.34,0.12,0.49,0.28,0.49,0.36
				c0,0.08,0.46,0.96,0.71,1.37c0.25,0.41,0.28,0.83,0.29,1.34c0.02,0.51,0.14,0.58,0.08,0.92c-0.06,0.35-0.2,1.2-0.18,1.49
				c0.02,0.28-0.09,0.31,0.09,0.61c0.18,0.3,0.32,0.26,0.34,0.41c0.02,0.15,0.03,0.35,0.02,0.48c-0.02,0.13,7.53,0.2,7.53,0.2
				s0.48-0.25,0.52-0.45c0,0,0.29,0.21,0.85,0.25c0.55,0.03,2.88,0.2,4.01-0.18c1.12-0.38,1.93-0.84,1.57-1.49
				c-0.35-0.64-0.6-0.5-0.69-0.53s-0.96-0.16-1.05-0.21c-0.09-0.05-0.45-0.35-0.62-0.36c-0.17-0.02-0.37,0.07-0.57-0.08
				c-0.2-0.15-0.49-0.41-0.62-0.48c-0.12-0.07-0.55-0.56-0.63-0.64c-0.08-0.08-0.17-0.16-0.26-0.33c-0.09-0.16-0.31-0.91-0.48-1.24
				c-0.17-0.33-0.49-0.83-0.62-0.87c-0.12-0.05-0.25,0.08-0.4-0.07c-0.15-0.15-0.48-1.06-0.49-1.16c-0.02-0.1,0.11-0.4-0.05-0.51
				c-0.15-0.12-0.32-0.18-0.4-0.28c-0.08-0.1,0.46-0.56,0.49-0.79s0.32-2.51,0.28-3.15c-0.05-0.64,0.08-5.18,0.06-5.36
				c-0.02-0.18,0.18-0.35,0.28-0.64c0.09-0.3,0.42-1.5,0.52-1.82c0.11-0.31,0.15-1.47,0.32-1.93c0.17-0.46,0.29-0.69,0.32-1.06
				c0.03-0.36,0.08-0.79-0.02-0.91c-0.09-0.12,0.71-0.83,1.28-2.31c0.57-1.49,0.92-3.89,1.05-5.08c0.12-1.19,0.09-2.95,0.17-3.07
				c0.08-0.12,0.45-1.44,0.34-1.78c-0.11-0.35-0.15-0.43-0.08-0.82c0.08-0.4,0.57-2.31,0.69-2.95c0.12-0.64,0.66-2.54,0.79-2.89
				c0.12-0.35,0.2-1.27,0.35-1.65c0.15-0.38,0.22-1.09,0.2-1.4c-0.02-0.31-0.12-1.2-0.05-1.58c0.08-0.38,0.26-0.23,0.25-0.89
				c-0.02-0.66,0.18-1.07-0.08-1.4c-0.26-0.33-0.85-2.18-0.91-2.61c-0.06-0.43-0.06-2.51-0.12-3.25c-0.06-0.74-0.26-4.74-0.31-5.13
				c-0.05-0.4-0.23-4.9-0.23-5.02c0-0.12,1.76-0.12,1.83-0.1c0.08,0.02,0.25,0.18,0.43,0.25c0.18,0.07,0.76,0.05,0.92-0.59
				c0.17-0.64-0.14-0.48-0.14-0.48s0.57-0.58,0.48-0.99c-0.09-0.41-0.02-0.3,0.03-0.5c0.05-0.2,0.09-0.78,0.05-0.87
				c-0.05-0.1,0.35-0.31,0.17-0.61c-0.18-0.3-0.65-1.32-1.05-1.42c-0.4-0.1-2.17,0.1-2.77,0.28c0,0,0.25-0.5,0.12-1.42
				c-0.12-0.92-0.45-1.91-0.43-2.36c0.02-0.45,0.02-0.59-0.09-0.78c-0.11-0.18-0.09-0.23-0.12-0.43c-0.03-0.2-0.23-1.95-0.39-2.29
				c-0.15-0.35-0.39-1.09-0.91-1.48c-0.52-0.4-0.83-0.53-0.89-0.87c-0.06-0.35-0.08-0.68-0.2-0.83c-0.12-0.15-0.48-0.53-0.59-0.58
				c-0.11-0.05-0.15-0.15-0.15-0.15l0.03-0.33c0,0,0.68,0.89,1.29,0.81c0,0-0.25-0.35-0.51-0.53c0,0-0.09-1.02-0.34-1.52
				c-0.25-0.49-0.57-0.92-0.66-1.04c-0.09-0.12-0.22-0.13-0.23-0.35c-0.02-0.21,0.34-1.3,0.85-1.8c0.51-0.5,1.36-0.91,2.37-1.68
				c1.02-0.78,0.52-1.77,0.35-1.85c0,0,0.25-1.04,0.14-1.24c-0.11-0.2-0.34-0.31-0.34-0.31s0.14-0.38,0-0.68
				c-0.14-0.3-0.02-0.78-0.02-0.78s0.72,0.12,0.92-0.1c0.2-0.21,0.12-0.82-0.17-1.2c-0.29-0.38-0.48-0.45-0.6-0.54
				c-0.12-0.1-0.03-0.86-0.08-0.89c-0.05-0.03-0.54-0.4-0.59-0.41c-0.05-0.02-0.62-0.71-0.68-0.73C17.32,6.18,17.14,5.07,17.03,5.02
				z"/>
		</g>
		<g>
			<g>
				<path class="rembug1" d="M71.65,28.63c-0.33-0.41-0.64-0.83-0.82-1.34c-0.4-0.37-0.74-0.81-1.06-1.25
					c-0.67-0.91-1.51-1.66-2.17-2.55c-0.8-1.07-1.65-2.09-2.47-3.15c-0.64-0.82-0.96-1.83-1.69-2.59c-1.34-1.39-3.53-2.33-5.38-2.33
					c-0.74,0-0.86-0.04-1.14-0.78c-0.19-0.5-0.97-0.3-1.45-0.35c-0.68-0.07-0.73-0.32-0.99-0.97c-0.2-0.51-0.37-1.04-0.46-1.58
					c0.11-0.03,0.22-0.06,0.32-0.11c0.14,0.05,0.25,0.07,0.36,0.03c0.01-0.26-0.45-0.5-0.04-0.66c0.18-0.31-0.26-0.66,0.14-0.85
					l-0.19-0.37c0.18-0.2,0.41-0.31,0.21-0.6l0.24-0.11C54.58,8.67,55.39,8.55,55,8.13c0.38-0.25,0.06-0.74,0.23-1.13L55,6.82
					c0.16-0.21-0.16-0.27-0.21-0.45c-0.19-0.5-0.08-1.25-0.72-1.38c-0.52-0.56-0.77-1.49-1.56-1.67c-0.14-0.21-0.3-0.38-0.48-0.53
					c0.07-0.23-0.2-0.4-0.37-0.55c-0.11,0.1-0.34,0.25-0.37,0.01c-0.03-0.05-0.1-0.17-0.2-0.1c-0.05,0.12-0.01,0.23-0.01,0.35
					c-0.49,0.03-0.93-0.26-1.41-0.17C49.29,2.14,49,2.44,48.65,2.44c-0.72-0.03-1.49,0.1-2.03,0.64c-0.43,0.25-0.83,0.61-1.18,0.96
					c-0.49,0.66-1.08,1.28-1.12,2.26c0.17,0.4-0.2,1.02,0.44,1.11c0.08-0.05,0.15-0.08,0.22-0.1c0.02,0.71,0.12,1.42,0.12,2.12
					c-0.24,0.31-0.75,0.82-0.49,1.21c0.25,0.37,0.45,0.75,0.93,0.55c0.03,0.89,0.66,1.66,1,2.44c0.38,0.89,0.72,1.85,1.34,2.58
					c0.36,0.04,0.92-0.28,1.06,0.19c0.19,0.65,0.21,0.81-0.05,1.41c-0.23,0.54-0.23,1.1-0.72,1.46c-0.39,0.29-0.76,0.47-1.03,0.91
					c-0.43,0.69-0.97,1.25-1.27,2.03c-0.19,0.5-0.27,1.04-0.26,1.58c0.01,0.6-0.18,1.15-0.29,1.74c-0.21,1.15-0.3,2.32-0.34,3.49
					c-0.02,0.81,0.34,2.64-0.12,3.21c-0.08,0.1,0.09,0.78,0.12,0.93c-0.11,0.62-0.2,1.24-0.28,1.86c-0.16,1.14-0.29,2.28-0.45,3.41
					c-0.34,2.35-1.15,4.53-1.49,6.87c-0.14,0.99,0.06,2.14,0.06,3.15c0,1.28,0.11,2.53,0.29,3.79c0.16,1.15,0.35,2.3,0.45,3.45
					c0.02,0.27-0.02,1.71,0.25,1.65c0.26-0.06,0.15-0.58,0.48-0.57c0.19,3.32,0.38,6.65,0.89,9.93c0.51,3.25,1.39,6.43,1.94,9.68
					c0.56,3.34,0.31,6.84,0.4,10.22c0.04,1.62,0.12,3.24,0.31,4.86c-0.03,0.74-0.26,1.44-0.33,2.17c-0.08,0.82,0.45,1.12,0.98,1.57
					c-0.14,0.08-0.21,0.28-0.38,0.32c-0.23,0.04-0.23-0.14-0.47,0.01c-0.44,0.27-0.21-0.29-0.26-0.33c-0.65,0.25-1.61,0.6-1.85,1.39
					c0.34-0.38,0.72-0.7,1.15-0.96c-0.07,0.46-0.8,0.61-0.55,0.96c-0.23-0.02-0.53-0.05-0.6,0.27c-0.19,0.2-0.14-0.16-0.3-0.16
					c0.03,0.97-3.43,1.46-4.09,1.77c-0.99,0.46-0.8,0.79-0.86,1.82c-0.03,0.56,0.31,0.54,0.79,0.65c0.41,0.1,0.84,0.14,1.26,0.16
					c1.89,0.09,3.87-0.14,5.73-0.49c0.3-0.06,2.19-0.63,2.2-0.31c0.02,0.46,1.31,0.14,1.69,0.11c0.75-0.05,1.51-0.09,2.23-0.31
					c0.3-0.09,0.6-0.22,0.86-0.41c0.3-0.23,0.09-0.89,0.1-1.27c0.01-0.49,0.07-0.98,0.04-1.48c-0.02-0.32-0.32-0.92-0.15-1.19
					c0.49-0.79,0.34-1.68,0.36-2.64c0.06-4.59,0.15-9.19-0.08-13.78c0.58,3.8,1.02,7.63,1.65,11.42c0.27,1.62,0.65,3.22,0.9,4.85
					c0.14,0.9,0.21,1.8,0.19,2.71c0.37,0.44,1.23,0.28,1.7,0.21c-0.05,1.07-0.66,1.85-0.86,2.85c-0.22,1.07-0.6,2.09-0.79,3.16
					c-0.15,0.86-0.43,2.1,0.41,2.57c0.73,0.41,1.63,0.43,2.44,0.38c1.6-0.11,3.86-0.43,3.65-2.6c-0.18-1.9,0.44-4.32-0.56-6.04
					c0.5,0.03,0.96,0.24,1.45,0.32c0.25-3.48-0.62-7.08-0.93-10.54c-0.31-3.45-0.82-6.93-1.54-10.31c-0.32-1.51-0.72-3.01-1.25-4.46
					c-0.27-0.74-0.21-1.64-0.27-2.43c-0.07-0.96-0.14-1.93-0.22-2.89c-0.28-3.48-0.57-6.96-0.67-10.45
					c-0.01-0.44-0.19-0.8,0.23-0.99c0.25-0.12,0.51-0.22,0.75-0.38c0.65-0.42,0.34-1.31,0.26-2.02c-0.19-1.69-0.5-3.37-0.78-5.05
					c-0.13-0.78-0.25-1.56-0.35-2.34c-0.11-0.86-0.2-1.21,0.36-1.86c0.24-0.28,0.65-0.02,1.05-0.3c0.14-0.1,0.3-0.22,0.48-0.22
					c0.38-0.01,0.65-0.44,0.93-0.74c2.08-2.22,3.83-4.77,5.29-7.5c0.36-0.67,0.71-1.36,1.04-2.05c0.5-0.58,0.92-1.24,1.33-1.9
					C71.96,31.57,72.64,29.85,71.65,28.63z M46.28,96.5C46.3,96.47,46.25,96.53,46.28,96.5L46.28,96.5z M46.49,96.37
					c-0.18,0.01,0.08-0.25,0.09-0.25c0.03,0.06,0.06,0.11,0.1,0.16C46.61,96.3,46.55,96.33,46.49,96.37z M46.83,96.12
					C46.76,96.3,46.71,95.91,46.83,96.12L46.83,96.12z M46.93,95.7C46.66,96.06,46.97,95.56,46.93,95.7L46.93,95.7z M46.88,95.91
					c0.18-0.23,0.28-0.23,0.3,0C47.07,95.91,46.95,96.13,46.88,95.91z M47.33,95.64C47.48,95.82,47.15,95.8,47.33,95.64L47.33,95.64
					z M55.32,79.13C55.26,79.34,55.26,78.92,55.32,79.13L55.32,79.13z M64.43,31.71c-0.16,0.42-0.49,0.72-0.8,1.02
					c-0.88,0.84-1.22,2.1-1.83,3.17c0.28-1.09,0.45-2.21,0.54-3.33c0.03-0.36,0.24-3.76,0.16-3.78c0.62,0.78,1.51,1.02,1.4,2.24
					C64.22,31.2,64.62,31.2,64.43,31.71z"/>
			</g>
		</g>
	</g>
</g>
</svg>
