<?xml version="1.0" encoding="utf-8"?>
<svg version="1.1" id="Layer_1" xmlns="http://www.w3.org/2000/svg" xmlns:xlink="http://www.w3.org/1999/xlink" x="0px" y="0px" viewBox="0 0 1058.15 249.87" style="enable-background:new 0 0 1058.15 249.87;" xml:space="preserve">
<style type="text/css">
	.workshop0{fill:#CB4927;stroke:#050404;stroke-width:2;stroke-miterlimit:10;}
	.workshop1{fill:#230F12;}
	.workshop2{clip-path:url(#SVGID_00000024686190219367343960000007191301193716419472_);}
	.workshop3{fill:#010101;}
</style>
<path class="workshop0" d="M1035.76,235.8H323.15c-11.81,0-21.39-9.58-21.39-21.39V88.04c0-11.81,9.58-21.39,21.39-21.39h712.61
	c11.81,0,21.39,9.58,21.39,21.39v126.37C1057.15,226.22,1047.57,235.8,1035.76,235.8z"/>
<g>
	<g>
		<path class="workshop1" d="M376.02,189.34v-75.12h17.38v60.95h37.67v14.17H376.02z"/>
		<path class="workshop1" d="M467.99,190.63c-5.94,0-11.43-0.97-16.47-2.9c-5.04-1.93-9.41-4.65-13.09-8.16
			c-3.69-3.5-6.55-7.62-8.58-12.34s-3.06-9.87-3.06-15.45s1.02-10.73,3.06-15.45s4.92-8.83,8.64-12.34
			c3.72-3.5,8.08-6.22,13.09-8.16c5.01-1.93,10.44-2.9,16.31-2.9c5.94,0,11.39,0.97,16.37,2.9c4.97,1.93,9.3,4.65,12.98,8.16
			c3.68,3.51,6.56,7.6,8.64,12.29c2.07,4.69,3.11,9.86,3.11,15.51c0,5.58-1.04,10.75-3.11,15.51c-2.08,4.76-4.95,8.87-8.64,12.34
			c-3.69,3.47-8.01,6.17-12.98,8.1C479.27,189.66,473.85,190.63,467.99,190.63z M467.88,175.82c3.36,0,6.46-0.57,9.28-1.72
			c2.83-1.14,5.31-2.79,7.46-4.94c2.15-2.15,3.81-4.68,4.99-7.62c1.18-2.93,1.77-6.19,1.77-9.77c0-3.58-0.59-6.83-1.77-9.77
			c-1.18-2.93-2.83-5.47-4.94-7.62c-2.11-2.15-4.6-3.79-7.46-4.94c-2.86-1.14-5.97-1.72-9.34-1.72c-3.36,0-6.46,0.57-9.28,1.72
			c-2.83,1.15-5.31,2.79-7.46,4.94c-2.15,2.15-3.81,4.69-4.99,7.62c-1.18,2.93-1.77,6.19-1.77,9.77c0,3.51,0.59,6.74,1.77,9.71
			c1.18,2.97,2.83,5.53,4.94,7.67c2.11,2.15,4.6,3.79,7.46,4.94C461.41,175.24,464.52,175.82,467.88,175.82z"/>
		<path class="workshop1" d="M514.02,189.34v-75.12h17.28v75.12H514.02z M529.58,172.17l-0.97-20.07l35.95-37.88h19.32l-32.41,34.88
			l-9.66,10.3L529.58,172.17z M565.43,189.34l-26.72-32.73l11.38-12.34l35.63,45.07H565.43z"/>
		<path class="workshop1" d="M572.19,189.34l33.48-75.12h17.17l33.59,75.12h-18.24l-27.47-66.32h6.87L590,189.34H572.19z M588.93,173.24
			l4.61-13.2h38.63l4.72,13.2H588.93z"/>
		<path class="workshop1" d="M656.21,189.34v-75.12h17.28v75.12H656.21z M671.77,172.17l-0.97-20.07l35.95-37.88h19.32l-32.41,34.88
			l-9.66,10.3L671.77,172.17z M707.62,189.34l-26.72-32.73l11.38-12.34l35.63,45.07H707.62z"/>
		<path class="workshop1" d="M714.38,189.34l33.48-75.12h17.17l33.59,75.12h-18.24l-27.47-66.32h6.87l-27.58,66.32H714.38z M731.12,173.24
			l4.61-13.2h38.63l4.72,13.2H731.12z"/>
		<path class="workshop1" d="M798.4,189.34v-75.12h32.52c6.72,0,12.52,1.09,17.38,3.27c4.86,2.18,8.62,5.31,11.27,9.39
			c2.65,4.08,3.97,8.94,3.97,14.59c0,5.58-1.32,10.39-3.97,14.43c-2.65,4.04-6.4,7.14-11.27,9.28c-4.87,2.15-10.66,3.22-17.38,3.22
			h-22.86l7.73-7.62v28.54H798.4z M815.79,162.72l-7.73-8.16h21.89c5.37,0,9.37-1.16,12.02-3.49c2.65-2.32,3.97-5.53,3.97-9.6
			c0-4.15-1.32-7.37-3.97-9.66c-2.65-2.29-6.65-3.43-12.02-3.43h-21.89l7.73-8.26V162.72z M846.16,189.34l-18.78-27.26h18.57
			l18.99,27.26H846.16z"/>
		<path class="workshop1" d="M886.83,189.34v-30.69l3.97,10.52l-33.05-54.94h18.46l25.33,42.17h-10.62l25.43-42.17h17.06l-33.05,54.94
			l3.86-10.52v30.69H886.83z"/>
		<path class="workshop1" d="M918.16,189.34l33.48-75.12h17.17l33.59,75.12h-18.24l-27.47-66.32h6.87l-27.58,66.32H918.16z M934.9,173.24
			l4.61-13.2h38.63l4.72,13.2H934.9z"/>
	</g>
</g>
<g>
	<defs>
		<rect id="SVGID_1_" width="357.51" height="249.87"/>
	</defs>
	<clipPath id="SVGID_00000085946014384013086370000010173993529036406718_">
		<use xlink:href="#SVGID_1_"  style="overflow:visible;"/>
	</clipPath>
	<g style="clip-path:url(#SVGID_00000085946014384013086370000010173993529036406718_);">
		<g>
			<path class="workshop3" d="M234.55,150.4c-0.32-0.76-1.21-1.9-1.07-2.36c0.14-0.46,0.75-1.1,0.6-1.67c-0.14-0.57-1.28-2.09-1.56-2.59
				c-0.29-0.5-0.14-1.37-0.07-1.79c0.07-0.42,0.14-1.94-0.32-2.7c-0.46-0.76-1.17-5.55-1.28-6.81c-0.11-1.25-0.5-5.71-0.71-6.85
				c-0.21-1.14-0.78-6.66-0.92-7.72c-0.14-1.06-0.82-6.16-0.99-8.14c-0.18-1.98-1.14-6.81-1.39-7.61c-0.25-0.8-1.46-6.92-2.17-8.29
				c-0.71-1.37-1.28-3.99-1.49-4.45c-0.21-0.46-0.32-2.05-0.96-3.88c-0.64-1.83-2.98-6.66-4.94-10.5c-1.95-3.84-3.84-7.99-4.8-10.84
				c-0.96-2.85-1.6-5.33-2.13-7c-0.53-1.67-1.67-7.65-1.92-9.24c-0.25-1.6-1.63-6.43-2.38-9.97c-0.75-3.54-2.31-7.04-3.62-9.02
				c-1.31-1.98-4.69-8.1-11.72-11.53c-7.03-3.42-15.2-2.81-18.97,1.9c0,0-2.14,0.11-0.89,4.41c-3.55,0.19-6.77,3.45-6.69,7.95
				c0,0-0.32,3.32,0.49,5.59c0,0-0.33,0.74,0.33,2.32c0.65,1.57,0.24,2.71-0.37,4.11c-0.61,1.4-0.73,4.32-0.16,7.56
				c0.57,3.23,1.22,6.33,2.28,8.43c1.06,2.1,1.79,3.93,2.41,4.67c0.61,0.74,1.35,1.53,1.67,1.75c0.33,0.22-0.49,1.18-1.14,3.62
				c-0.65,2.45-0.24,5.07-0.41,5.72c-0.16,0.66-3.59,3.93-7.26,4.94c-3.67,1-7.5,1.27-11.05,1.62c-3.55,0.35-8.69,5.63-10.11,9.61
				c-1.43,3.97-4.16,12.36-4.69,14.42c-0.53,2.05-2.32,7.56-2.32,7.56s-2.08,10.7-2.57,13.63c-0.49,2.93-3.3,10.7-3.79,11.75
				c-0.49,1.05-0.41,1.53,0.25,2.4c0.65,0.87,0.9,1.4,0.57,2.27c-0.33,0.87-1.39,2.93-1.3,3.67c0.08,0.74,0.37,2.66,0.94,3.71
				c0.57,1.05,1.55,3.41,1.71,3.67c0.16,0.26-0.53,2.27-0.77,4.19c-0.25,1.92-0.61,11.36-0.57,13.54
				c0.04,2.18,0.57,12.36,0.57,14.02c0,1.66-0.37,7.38-0.53,8.17c-0.16,0.79,0.04,1.57,0.29,2.14c0.24,0.57-0.04,4.54-0.53,7.34
				c-0.49,2.79-1.51,5.55-1.35,6.46c0.16,0.92,0.73,5.28,1.1,7.16c0.37,1.88,0.69,2.05,1.75,3.14c1.06,1.09,2.08,2.66,2.45,2.88
				c0.37,0.22,0.61,0.48,0.77,0.87c0.16,0.39,0.73,1.05,1.02,1.22c0.29,0.17,3.18,2.05,3.79,2.53c0.61,0.48,0.82,0.92,1.1,1.49
				s0.61,1.62,0.49,2.31c-0.12,0.7-0.73,1.49-0.61,2.45c0.12,0.96,0.82,1.49,1.43,2.18c0.61,0.7,0.57,2.4,0.69,3.76
				c0.12,1.35,0.65,1.75,1.1,2.88c0.45,1.14,0.82,3.27,0.49,5.37c-0.33,2.1-0.53,5.24-0.37,7.21c0.16,1.97,0.73,1.53,0.53,3.28
				c-0.2,1.75-0.86,3.54-0.61,5.33c0.24,1.79,1.55,4.06,1.22,4.72c-0.33,0.65-0.08,1.53-0.57,2.45c-0.49,0.92-1.1,4.06-0.9,5.24
				c0.2,1.18,0.49,2.32,0.82,2.93c0.33,0.61,0.53,0.61-0.04,1.27c-0.57,0.66-1.02,1.22-0.77,1.53c0.24,0.31,0.41,1.31,0.16,2.18
				c-0.25,0.87-0.41,0.83-0.82,1.66c-0.41,0.83-0.98,0.7-0.49,1.44c0.49,0.74,0.69,0.96,0.53,1.62c-0.16,0.65-0.57,1.7-0.73,2.27
				c-0.16,0.57-0.41,3.63-0.53,5.16c-0.12,1.53,0,4.37-0.04,5.5c-0.04,1.14-0.08,6.86,0.04,8.21c0.12,1.36,0.33,9.87,0.98,13.54
				c0,0,3.29,29.97,3.5,32.47c0.21,2.5-3.61,5.91-1.48,9.54c2.12,3.63,2.97,2.27,2.54,6.81c-0.42,4.54-1.7,5.91-1.27,7.95
				s-0.64,2.95-1.27,4.77c0,0-2.54,2.27-0.42,4.09c0,0-0.85,2.95,0,4.32c0.85,1.36,0,3.18,1.48,4.09
				c1.48,0.91,11.66,2.73,15.91,0.23c0,0,0.85-3.86,2.55-5c1.7-1.14,2.97-3.41,2.54-4.77s-1.7-3.18-1.27-4.32s0-5,0.42-7.27
				c0.42-2.27-0.85-8.63-0.64-10.45c0.21-1.82,1.06-5.45,0-7.27c-1.06-1.82-1.48-6.36-0.64-7.04c0.85-0.68,1.48-12.27,1.91-20.9
				s0.21-26.12,1.06-29.53c0.85-3.41,0.85-6.13,1.48-8.86c0.64-2.73-1.06-3.18,0.42-5.45c1.48-2.27,4.03-12.95,4.45-16.58
				c0.42-3.63,1.27-13.4,1.7-14.76s1.7-5.22,1.7-7.04s1.48-7.95,1.91-9.99c0.42-2.04,0.42-7.04,1.27-7.27
				c0.85-0.23,2.12,6.59,2.33,7.72c0.21,1.14-0.85,2.5,0.64,5c1.48,2.5,1.7,19.31,2.33,22.26c0.64,2.95,2.12,15.22,2.76,17.26
				c0.64,2.04,1.7,3.63,1.91,5c0.21,1.36-1.06,1.14-0.42,2.95c0.64,1.82,1.7,2.27,1.91,3.86c0.21,1.59-1.27,2.5-0.85,4.09
				c0.42,1.59,0.64,16.35,1.06,18.85c0.42,2.5,0.21,8.4,1.06,9.99c0.85,1.59,0.42,2.73,0.64,4.09c0.21,1.36-2.54,13.86-2.76,17.49
				c-0.21,3.63-1.48,20.22-0.85,22.26c0.64,2.04,3.18,8.86,4.45,10.45c1.27,1.59,1.27,7.5,2.76,9.54c1.48,2.04,1.7,3.63,1.48,5.22
				c-0.21,1.59,2.54,1.14,3.61,1.14c1.06,0,0.64-1.82,1.91-0.91c1.27,0.91,12.3,3.41,18.24,1.36c0,0,1.7-1.82,1.48-2.95
				c-0.21-1.14-0.42-2.04-0.42-2.04s-3.82-5.91-4.45-7.04c-0.64-1.14-0.64-0.91-1.7-2.27c-1.06-1.36-1.06-1.59-1.48-2.73
				c-0.42-1.14-0.64-3.41-1.27-4.32c-0.64-0.91-1.27-1.82-1.48-2.73c-0.21-0.91-1.91-1.36-1.06-2.27c0.85-0.91,1.48-4.09,0.85-4.32
				c-0.64-0.23-2.97-0.91-2.33-2.04c0.64-1.14,0.42-3.41,1.48-4.54c1.06-1.14,3.61-11.13,2.97-14.08
				c-0.64-2.95,0.85-20.22,0.85-24.53c0-4.32,1.06-30.44,0.85-31.8c-0.21-1.36-1.27-0.91-1.27-1.82c0-0.91-0.42-1.59-0.42-2.73
				c0-1.14-0.64-0.91-0.21-3.41c0.42-2.5,0.42-4.77,0.42-7.27c0-2.5-0.64-4.09-0.42-6.59s1.27-4.77,1.06-7.04
				c-0.21-2.27-0.21-8.18,0-9.54c0.21-1.36,1.48-10.45,1.91-12.72c0.42-2.27,0.42-1.36,0.85-3.86c0.42-2.5-0.21-5.22,0.42-6.13
				c0.64-0.91,1.7-2.27,1.91-4.32c0.21-2.04,0-19.76-0.42-23.62c-0.42-3.86-1.91-4.09-1.27-4.32c0.64-0.23,10.6-2.04,12.51-7.27
				c0,0,1.53-2.72,1.63-3.75c0,0,1.03-0.15,1.24-0.72c0.21-0.57,0.57-3.99,0.32-4.83c-0.25-0.84-1.49-1.86-1.39-1.98
				c0.11-0.11,0.89-9.89,1.1-11.34c0.21-1.45,0.5-7.42,0.32-8.45c-0.18-1.03-0.21-2.28-0.28-3.12c-0.07-0.84-0.85-3.5-0.39-4.11
				C233.13,152.57,234.87,151.16,234.55,150.4z M221.09,182.2c-0.42-0.14-0.91-1.98-1.23-3.34c-0.32-1.36-0.16-5.18-0.16-5.18
				c0.65,0.87,1.72,3.58,1.88,5.88C221.74,181.85,221.51,182.34,221.09,182.2z"/>
		</g>
		<g>
			<g>
				<path class="workshop3" d="M224.7,225.15c0.53,1.98,2.64,7.25,3.81,8.97c1.17,1.72,2.25,2.23,3.15,2.86c0.9,0.63,2.11,2.85,2.94,3.89
					c0.84,1.04,1.6,2.39,2.35,2.22c0.74-0.17,1.67-0.35,1.48-1.65c-0.2-1.3-1.33-3.73-1.33-3.73s2.74,0.06,3.29-0.19
					c0.55-0.25,0.83-1.49,0.43-1.76c-0.4-0.27-3.69-0.18-4.14-1.05l1.09-0.5c0,0,1.27,0.59,2.01,0.33c0.73-0.27,1.3-0.32,1.4-1.44
					c0.1-1.12-0.81-4.38-1.26-5.35c-0.45-0.97-0.55-2.17-0.62-3.18c-0.08-1.01-0.18-2.31-0.34-3.11c-0.11-0.54-0.49-1.94-0.81-2.96
					c0.01-0.24,0-0.51-0.06-0.84c-0.52-2.9,1.2-4.11,0.79-7.68c-0.42-3.57-0.17-5.99,0.16-9.43c0.01-0.12,0.02-0.27,0.02-0.42
					c1.69,0.21,3.3,0.2,4.69-0.15c1.07,1.31,2.13,2.49,3.08,3.41l0.01,0.01l0,0c1.47,1.44,2.67,2.26,3.23,2.03
					c-0.35,2.93-0.65,5.59-0.83,7.56c-0.67,7.23,2.69,34.64,4.12,43.56c0.15,0.9,0.27,2,0.36,3.25c5.29,37.97,0.66,43.25,3.24,70.46
					l0,0c0.11,1.12,0.22,2.23,0.33,3.32c2.39,22.61,3.91,37.51,4.81,40.9c0.02-0.01,0.04-0.02,0.06-0.03
					c-0.04,0.22-0.06,0.48-0.06,0.8c0,1.38,0.11,7.54,0.14,8.1c0.03,0.56-0.05,1.38,0.47,2.09c0.05,0.07,0.12,0.15,0.2,0.24
					c2.17,2.48,2.6,1.58,2.76,6.77c0,1.05,0.1,2.28,0.85,3.22c1.07,1.34,5.86,4.18,7.62,4.59c1.76,0.41,7.05,0.37,9.41,0
					c2.37-0.37,2.81-0.86,3.25-1.6c0.44-0.75,0.3-1.64,0.33-2.69c0.03-0.99-0.49-4.56-0.78-6.03c-1.41-5.02-4.91-8.62-5.68-10.4
					c-0.66-1.53-1.08-4.9-1.37-7.24c-0.08-0.3-0.14-0.55-0.16-0.7c-0.03-0.19-0.04-0.4-0.06-0.6c0.37,0,0.58,0.01,0.58,0.01
					s-1.67-85.73,0.36-93.12c2.02-7.36,4.74-40.3,6.76-49.8c0.06,0.11,0.13,0.43,0.19,0.82c0.02,0.5,0.03,0.98,0.1,1.32
					c0.17,0.87,0.44,1.68,0.71,2.48c0.51,1.96,0.98,4.17,1.43,6.56c0.06,1.03,0.11,2.05,0.28,3.03c0.27,1.57,0.56,3.27,0.97,4.8
					c0.03,0.09,0.06,0.19,0.1,0.29c0.12,0.79,0.24,1.58,0.35,2.38c0.01,0.31,0.01,0.61,0.02,0.92c0.04-0.06,0.06-0.11,0.09-0.17
					c1.42,9.85,2.69,20.51,4.27,28.33c-5.98,31.39-8.08,78.25-8.41,85.07c-1.91,5.1-3.5,10.6-3.5,10.6s1.51,1.72,4.52,3.48
					c0.99,0.64,2.15,1.29,3.01,1.77v0c0,0,0.01,0,0.01,0c0.33,0.18,0.61,0.33,0.83,0.45c2.04,1.15,3.79,2.68,5.58,5.19
					c0.18,0.31,0.4,0.65,0.68,0.99c1.19,1.47,6.89,4.44,9.29,5.51c2.4,1.07,5.62,2.06,7.44,2.17c1.82,0.11,4.23,0.23,4.77-0.06
					c0.55-0.29,0.59-1.17,0.59-1.54c0-0.37-0.06-0.44-0.34-0.64c0.03-3.15-1.18-4.75-8.03-14.19l0,0c-2.02-2.76-3.9-6.01-5.03-9.07
					c1.37-9.72,7.45-60.4,12.08-87.58v0c0.05-0.49,0.1-0.95,0.14-1.39c0.31-3.14,1.15-9.36,1.1-9.37c-0.02,0-0.03-0.01-0.04-0.01
					c0.08-1.65,0.07-2.77,0.06-3.93c0.05-0.29,0.09-0.57,0.09-0.82c0.32-13.87,1.92-40.2-1.96-72.37c0.55,0.8,1.23,1.6,2.11,2.42
					c2.21,2.04,6.48,6.08,7.51,9.05c0.89,2.56,1.08-5.38,0.54-13.75l0,0c0.12,0.14,0.27,0.22,0.44,0.26
					c1.84,2.72,3.49,5.24,4.64,7.33c3.66,6.71,1.27,8.75,1.75,11.59c0.64,3.79,1.37,6.42,3.16,11.19c0.71,1.9,1.62,0.28,2.1-0.81
					c0.48-1.09-0.83-7.44-0.83-7.44s1.52-0.05,2.92,2.42c1.4,2.47,1.19,4.36,0.59,7.6c-0.59,3.24-2.22,5.07-0.6,6.55
					c1.62,1.48,2.66-0.43,3.55-1.98c0.88-1.55,0,0,1.83-0.41c1.83-0.4,1.72-1.57,2.36-3.02c0.63-1.45,1.04-1.91,1.7-5.78
					c0.66-3.87,0.25-7.62-2.65-13.72c-2.9-6.11-6.15-9.07-7.56-12.43c-0.45-1.08-1.32-3.38-2.41-6.32c2.19-1.33,4.01-2.87,4.66-4.59
					c0,0-11.92-28.56-14.37-38.64c-2.07-8.53,0.13-39.03-4.05-53.09c0.1-0.74,0.06-1.49-0.14-2.28c-1.66-6.31-1.81-5.56-8.19-7.69
					c-4.78-1.59-8.48-2.68-12.87-4.22c-1.97-0.69-3.16-1.83-5.15-2.96v0l0,0c-0.01,0-0.01-0.01-0.02-0.01
					c-0.2-0.12-0.43-0.24-0.67-0.35c-0.28-0.14-0.57-0.28-0.89-0.42l-1.78-0.9c0,0-0.6-0.89-0.12-2.18
					c0.85-1.74,4.14-7.51,5.5-11.31c1.07-0.57,2.17-3.34,2.7-5.06c0.31-0.99,0.8-2.32,1.03-3.4c0.72-0.78,0.97-1.6,1.53-2.55
					c-0.31,0.85-0.14,1.67-0.78,2.44c-0.25,0.31,0.16,0.76,0.42,0.45c2.24-2.73,2.11-6.75,0.23-9.79c0-0.02-0.01-0.05-0.01-0.07
					c0.27-0.39,0.48-0.84,0.63-1.36c0.28-0.98-0.06-1.82-0.51-2.64c0.01-2.48-0.19-5.02-1.03-7.3c-0.12-0.45-0.57-1.37-0.82-1.75
					c-1.43-2.83-2.83-4.76-5.78-5.64c-0.12-0.15-0.25-0.3-0.38-0.45c-0.9-2.43-2.66-4.31-4.93-5.33c-0.28-0.13-0.45,0.35-0.17,0.48
					c0.85,0.37,1.63,0.87,2.31,1.48c-1.39-1.01-3.02-1.66-4.42-1.77c-0.82-0.06-1.63,0-2.41,0.16c-0.61-0.05-1.22-0.07-1.84-0.04
					c-3.99-0.55-8.35,0.08-12.37,2.93c-0.7,0.55-1.37,1.3-1.99,2.17c-1.96,2.77-3.39,6.82-3.81,9.82c-0.07,0.48-0.11,0.93-0.12,1.34
					c-0.66,2.65-2.19,3.27-2.65,6.02c-0.46,2.77-0.94,7.08,1.15,8.8c0.05,0.04,0.1,0.07,0.15,0.1c0.21,0.36,0.42,0.7,0.61,1.04
					c0.09,0.88,0.25,1.73,0.48,2.57c0.25,0.55,0.52,1.07,0.82,1.59c0.57,1.93,1.21,2.32,1.48,3.61c0.43,2.08,0.21,3.69,1.63,3.85
					c0.11,0.5,0.38,1.07,1.58,2.93c0.83,5.53-0.07,8.24-1.53,10.19c-0.13,0.04-0.26,0.08-0.39,0.13c0,0,0.02-0.02,0.02-0.02
					c-0.04,0.02-0.08,0.03-0.12,0.05c-0.83,0.27-1.63,0.56-2.37,0.9c-9.79,3.37-26.3,5.75-28.93,11.3
					c-1.49,4.43-1.91,7.83-1.62,10.51c-3.55,13.15-7.41,32.05-9.69,43.9c-2.98,15.54-0.63,40.29-1.88,45.75
					c-0.94,4.78,0.21,4.38-1.57,11.68c0.79,0.26,1.78,0.64,2.92,1.05c-0.11,0.98-0.18,0.71-0.26,1.89
					c-0.15,2.24-0.43,5.75-0.77,6.72c-0.3,0.85-3.62,12.19-3.25,15.7C224.48,222.97,224.49,224.34,224.7,225.15z"/>
			</g>
		</g>
		<g>
			<path class="workshop3" d="M7.79,400.44c0.12,0.22,25.16,0,25.16,0l0.44-9.17c0,0,2.05-0.99,2.13-1.68c0.08-0.69-0.04-2.32,0.36-2.84
				c0.4-0.52,2.17,0.39,2.85-1.29c0.68-1.68,5.02-12.18,6.03-14.03c1-1.85,1.85-3.18,1.77-4.91c-0.08-1.72,1.01-12.4,1.09-14.16
				c0.08-1.76,3.42-19.24,3.78-22.85c0.36-3.61,3.01-18.72,3.22-20.92c0.2-2.2,2.17-10.59,2.65-14.12
				c0.48-3.53,3.1-13.56,3.78-17.17c0.68-3.62,3.62-14.25,4.18-17.09c0.56-2.84,1.85-8.35,2.53-11.92
				c0.68-3.57,2.29-8.26,2.69-11.19c0.4-2.93,1.08-6.8,1.49-7.27c0.4-0.47,0.76-0.77,0.8-0.3c0.04,0.47-0.08,6.33-0.12,8.09
				c-0.04,1.76-0.93,13.56-0.44,15.45c0.48,1.89,0.4,2.45,0.32,4.26c-0.08,1.81,0.2,4.86-0.52,9.25c-0.72,4.39-2.33,15.11-1.85,20.4
				c0.48,5.29,1.69,10.2,1.69,11.36c0,1.16-0.84,1.68-1.04,2.54c-0.2,0.86-0.12,9.3-0.12,11.28c0,1.98-0.08,13.94-0.16,15.97
				c-0.08,2.02-0.2,17-0.16,18.68c0.04,1.68,0.28,8.65,0.16,10.46c-0.12,1.81-0.84,4.65-0.76,6.2c0.08,1.55-0.28,2.76-0.52,3.49
				c-0.24,0.73-0.28,1.34-0.32,2.5c-0.04,1.16-0.44,9.13,0.2,10.34c0.64,1.21,1.37,1.61,1.69,2.81c0.32,1.2,1,1.23,0.6,2.22
				c-0.4,0.99-1.61,5.09-1.65,6.81c-0.04,1.72-0.16,3.03-0.04,3.21c0.12,0.17,1.45,0.26,1.45,0.26l0.28,4.69h17.82
				c0,0,0.07-2.45,1.36-2.02c1.29,0.43,0.68,0.04,1.89,0.04c1.21,0,18.24-0.39,18.24-0.39s3.9-0.65,4.1-1.98
				c0.2-1.34-0.8-0.82-0.8-0.82s1.05-3.06-0.4-3.66c-1.45-0.6-6.31-0.99-6.51-1.21c-0.2-0.22,0.12-2.11-0.72-2.58
				c-0.84-0.47-1.45-0.43-2.17-0.9c-0.72-0.47-1.33-1.29-1.69-1.42c-0.36-0.13-1.09-0.13-1.65-0.39c-0.56-0.26-0.52-0.69-1.21-0.73
				c-0.68-0.04-0.92,0.22-1.69,0.39c-0.76,0.17-1.12,0.73-1.85-0.04c-0.72-0.77-2.09-2.62-2.05-3.31c0.04-0.69,2.01-3.4,2.05-6.11
				c0.04-2.71-0.32-8.69,0.24-11.84c0.56-3.14,2.13-20.62,2.25-23.24c0.12-2.62,2.17-12.61,0.36-18.08c-1.81-5.47-1.61-7.62-1-9
				c0.6-1.38,3.33-6.37,3.3-10.63c-0.04-4.26,0.04-7.36-1.73-10.16c-1.77-2.8-1.81-3.87-1.21-5.47c0.6-1.59,2.21-9.81,2.17-12.05
				c-0.04-2.24,0.84-6.71,1.21-8.61c0.36-1.89,2.65-8.18,2.69-10.76c0.04-2.58,2.05-10.24,2.17-12.74
				c0.12-2.5,1.04-10.11,1.53-11.92c0.48-1.81,0.48-2.07,0.72-2.24c0.24-0.17,7.27-0.47,7.15-0.43c-0.12,0.04-0.08-9.43-0.2-10.8
				c-0.12-1.38,0.2-8.09-0.08-9.43c-0.28-1.33-0.16-10.11-0.2-11.45c-0.04-1.33,0-2.45-0.24-3.23c-0.24-0.77-0.56-3.1-0.12-3.36
				s1.01,1.33,1.29,2.28s-0.24,4.82-0.04,5.29c0.2,0.47,2.09,3.49,2.45,5.21c0.36,1.72,1.89,6.2,2.49,7.36
				c0.6,1.16,1.89,4.65,1.81,6.07c-0.08,1.42,0.24,2.32,0.32,3.49c0.08,1.16,0.44,1.81,0.56,2.28c0.12,0.47,0.92,1.51,0.92,1.51
				s-0.28,4.09,0.24,5.68c0.52,1.59,0.4,3.27,0.64,3.87c0.24,0.6,1.49,1.38,1.85,1.12c0.36-0.26,0.88-0.47,0.88-0.47
				s0.72,0,1.04,0.56c0.32,0.56,1.17,1.46,2.25,1.51c1.09,0.04,4.9-0.04,4.9-0.04s1.45,0.3,1.93-3.53c0.48-3.83,1.85-7.75,1.69-7.88
				c-0.16-0.13-1.65-5.04-1.97-5.81c-0.32-0.77-0.28-1.81-0.12-2.2c0.16-0.39,0.12-0.9,0.12-1.51s-1.17-13.34-1.53-16.31
				c-0.36-2.97-1.65-10.54-1.89-11.49c-0.24-0.95-0.04-3.31-0.16-4.17c-0.12-0.86-0.4-7.62-0.72-8.65
				c-0.32-1.03-0.24-1.68-0.48-2.97c-0.24-1.29-0.84-2.28-0.72-3.49c0.12-1.21-0.72-6.2-1.09-8.01c-0.36-1.81-0.76-9.73-1.29-12.39
				c-0.52-2.67-1.21-7.92-1.57-9.73c-0.36-1.81-1.45-10.37-2.21-12.22c-0.76-1.85-1.37-6.54-2.09-7.96
				c-0.72-1.42-1.37-3.23-1.61-4.39s-0.28-2.07-0.28-2.28c0-0.22-0.93-6.93-1.45-8.65c-0.52-1.72-2.21-7.32-3.62-9.21
				c-1.41-1.89-1.29-2.88-2.21-3.57c-0.92-0.69-8.2-4.56-10.17-5.04c-1.97-0.47-7.88-3.01-9.73-4c-1.85-0.99-3.21-1.33-3.82-1.81
				c-0.6-0.47-0.64-0.6-1.41-1.38c-0.76-0.78-3.7-3.57-4.62-4.3c-0.92-0.73-1.91-2.7-2.65-2.92c0,0-1.02-9.16,2.08-14.64
				c0,0,2.09-0.14,2.81-1.14c0.72-1,1.58-4.24,1.3-6.17c-0.29-1.93,0.89-4.71,0.31-5.17c-0.58-0.46-1.2-0.77-1.2-0.77v-8.18
				c0,0-0.34-3.79-0.99-4.72c-0.65-0.93-2.74-3.63-2.96-4.09c-0.22-0.46-0.36-2.01-0.51-2.63c-0.14-0.62,0.07-0.93-0.72-1.7
				c-0.79-0.77-1.23-1-1.8-1.31c-0.58-0.31-3.39-2.32-3.75-2.63c-0.36-0.31-2.23-1.08-3.46-1.16c-1.23-0.08-7.57,0-9.3,0.93
				c-1.73,0.93-5.05,4.63-6.35,6.26c-1.3,1.62-1.95,2.7-2.52,3.4c-0.58,0.7-1.23,1.24-1.66,2.16c-0.43,0.93-1.01,1.31-1.08,2.63
				c-0.07,1.31-0.29,0.62-0.36,2.24c-0.07,1.62,0.5,3.86,0.79,5.02c0.29,1.16,0.87,0.7,0.87,1.85c0,1.16-0.29,1.39-0.29,1.39
				l-0.58,0.15l0.29,1l0.72,0.08c0,0,0.22,1.85,0.65,2.7c0,0-0.65,3.4,0.36,8.11c1.01,4.71,1.51,7.18,2.38,8.57
				c0.87,1.39,1.95,3.24,2.16,3.71c0,0-6.42,5.64-8.73,6.41c-2.31,0.77-16.08,5.72-18.82,6.33c-2.74,0.62-7.14,1.93-8.58,5.1
				c-1.44,3.17-4.55,9.27-5.48,13.52c0,0-5.07,20.08-5.83,24.69c-0.76,4.61-1.49,11.71-2.13,16.96c0,0-0.52,3.1-1.69,5.72
				s-1.2,8.22-0.24,10.59c0.96,2.37,6.59,8.31,8.16,9.25c1.57,0.95,10.89,5.16,12.82,5.51l-0.44,4.91l-1.25,0.17
				c0,0,0.32,4.95,0,10.85c-0.32,5.9-0.76,10.11-0.8,10.29c-0.04,0.17-0.32,0.69-0.52,1.21c-0.2,0.52-0.36,5.29-0.64,6.37
				c-0.28,1.08-0.68,2.07-0.96,2.58c-0.28,0.52-0.44,4.22-0.4,6.97c0.04,2.75-0.64,11.41-0.8,12.35c0,0-0.12,0.56,0.76,0.43
				c0.88-0.13,7.47-1.03,8-0.86c0.52,0.17-0.08,2.15-0.24,2.8c-0.16,0.65-0.88,1.55-0.76,2.67c0.12,1.12-0.36,6.84-0.64,8
				c-0.28,1.16-1.89,8.95-1.61,12.87c0.28,3.92-0.56,10.11,0.08,12.52c0.64,2.41,1.57,3.7,1.65,4.39c0.08,0.69-0.56,4.13-0.72,7.36
				s-0.64,9.73-0.72,10.46c-0.08,0.73,0.04,2.41-0.04,3.14c-0.08,0.73,0,0.78-0.28,1.29c-0.28,0.52-0.76,2.41-0.84,3.18
				c-0.08,0.78-1.09,1.59-1.09,3.74c0,2.15,0.04,3.83-0.36,4.09c-0.4,0.26-2.81,3.92-2.89,5.9c-0.08,1.98-0.2,9.64-0.12,11.58
				c0.08,1.94-1.17,4.65-1.61,5.9c-0.44,1.25-0.4,5.85-0.52,7.36c-0.12,1.51-0.4,1.81-0.76,3.36c-0.36,1.55-1.45,8.61-1.41,10.98
				c0.04,2.37-0.4,9.6-0.4,9.6s-4.94,3.1-5.46,5.04c-0.52,1.94-1.65,10.2-1.21,11.49c0.44,1.29,3.46,4.43,3.66,5.64
				c0.2,1.21-0.08,1.72-0.68,2.2c-0.6,0.47-1.61,1.03-1.49,2.11c0.12,1.08,0.4,2.24,0.4,2.24s-1.37,0.17-1.65,1.16
				c-0.28,0.99-0.32,2.07-0.24,2.19c0.08,0.13,0.6,0.13,0.6,0.13s-0.16,1.16-0.68,1.72c-0.52,0.56-1.93,2.15-2.49,2.8
				c-0.56,0.65-0.88,1.33-1.45,2.32c-0.56,0.99-0.93,1.46-0.97,1.89c-0.04,0.43,0.28,1.29,0.32,1.98c0.04,0.69-0.08,0.77-0.2,1.21
				C7.75,400.06,7.67,400.23,7.79,400.44z M129.83,222.79l2.31-0.17c0,0,0.93,1.26,0.93,2.3c0,1.04-0.57,1.91-0.73,2.08
				c-0.16,0.17-0.77,0.26-0.89,0.22c-0.12-0.04-1.42-1.26-1.42-1.26L129.83,222.79z"/>
		</g>
	</g>
</g>
</svg>