<?xml version="1.0" encoding="utf-8"?>
<svg version="1.1" xmlns="http://www.w3.org/2000/svg" xmlns:xlink="http://www.w3.org/1999/xlink" x="0px" y="0px"
	 viewBox="0 0 98.1 98.1" style="enable-background:new 0 0 98.1 98.1;" xml:space="preserve">
<style type="text/css">
	.ygf0{fill:#FFFFFF;}
</style>
<path class="ygf0" d="M0,98.1h98.1V0H0V98.1z M32.8,22.4l-4.7,5.5v1.6l3.8,2.9H19.2l3.8-2.9v-1.6l-4.8-5.7l-3.4-2.3h12l-2.6,2.3
	l2.7,3l2.6-3.3L27,19.9h9.3L32.8,22.4z M52.3,54.3c-1.8-1.3-2.7-2.9-2.7-4.8c0-2,1-3.7,3-5.1c2-1.4,4.4-2.2,7.1-2.2
	c2.4,0,4.4,0.6,6.1,1.7l1.8-1.3v5.7c-2.5-2.5-5.1-3.7-7.9-3.7c-1.3,0-2.3,0.4-3,1.3c-0.7,0.8-1.1,2-1.1,3.5c0,3,1.4,4.4,4.2,4.4
	c1.3,0,2.3-0.3,3.1-1v-0.7l-4.1-3.1h12.7l-3.7,3.1v4.1l-2.2-1.4c-2.1,0.9-4.3,1.4-6.5,1.4C56.4,56.3,54.1,55.6,52.3,54.3 M79.6,72.2
	l-3.9-3.9h-6.9v2.6h3.7l2.9-1.5v6.3l-2.9-1.9h-3.7v2.1l3.7,3H60l3.7-3v-6.9L60,66h19.7V72.2z"/>
</svg>
