<?xml version="1.0" encoding="UTF-8"?>
<svg id="Layer_1" data-name="Layer 1" xmlns="http://www.w3.org/2000/svg" version="1.1" viewBox="0 0 1920 1920">
  <rect width="1920" height="1920" style="fill: #010101; stroke-width: 0px;"/>
  <path d="M44.74,1875.21h1830.53V44.79H44.74v1830.43ZM657.68,462.3l-87.07,102.78v30l70.04,54.84h-237.09l70.04-54.84v-30l-90.21-106.74-63.66-42.98h224.62l-47.74,42.98,50.68,56.87,48.96-60.82-47.74-39.02h172.93l-63.76,46.93ZM1020.36,1058.53c-33.96-24.13-50.99-53.93-50.99-89.5s18.45-69.13,55.65-95.89c37.1-26.76,81.4-40.14,132.99-40.14,44.09,0,81.8,10.64,113.22,31.83l34.26-23.82v106.53c-45.72-46.53-95.08-69.84-148.19-69.84-23.72,0-42.27,7.9-55.45,23.62-13.28,15.81-19.97,37.71-19.97,65.78,0,55.14,26.15,82.71,78.46,82.71,23.92,0,43.28-6.39,58.08-19.06v-13.18l-76.83-57.07h236.68l-68.83,57.07v77.14l-41.66-25.44c-39.02,16.83-79.37,25.34-121.13,25.34-50.18,0-92.34-12.16-126.3-36.08M1530.53,1392.42l-73.29-73.39h-128.43v49.36h69.64l54.23-28.79v116.77l-54.23-35.88h-69.64v39.84l69.13,55.95h-234.35l68.62-55.95v-129.04l-68.62-54.84h366.94v115.96Z" style="fill: #fff; stroke-width: 0px;"/>
</svg>