<?xml version="1.0" encoding="utf-8"?>
<svg version="1.1" id="Layer_1" xmlns="http://www.w3.org/2000/svg" xmlns:xlink="http://www.w3.org/1999/xlink" x="0px" y="0px" viewBox="0 0 58 58" style="enable-background:new 0 0 58 58;" xml:space="preserve">
<style type="text/css">
	.ygf0{fill:#010101;}
	.ygf1{fill:#FFFFFF;}
</style>
<g>
	<g>
		<g>
			<rect class="ygf0" width="58" height="58"/>
		</g>
	</g>
	<g>
		<g>
			<g>
				<path class="ygf1" d="M1.35,56.65h55.3V1.35H1.35V56.65z M19.87,13.97l-2.63,3.1v0.91l2.12,1.66h-7.16l2.12-1.66v-0.91
					l-2.73-3.22l-1.92-1.3h6.79L15,13.85l1.53,1.72l1.48-1.84l-1.44-1.18h5.22L19.87,13.97z M30.82,31.98
					c-1.03-0.73-1.54-1.63-1.54-2.7c0-1.12,0.56-2.09,1.68-2.9c1.12-0.81,2.46-1.21,4.02-1.21c1.33,0,2.47,0.32,3.42,0.96l1.04-0.72
					v3.22c-1.38-1.41-2.87-2.11-4.48-2.11c-0.72,0-1.28,0.24-1.67,0.71c-0.4,0.48-0.6,1.14-0.6,1.99c0,1.67,0.79,2.5,2.37,2.5
					c0.72,0,1.31-0.19,1.75-0.58v-0.4l-2.32-1.72h7.15l-2.08,1.72v2.33L38.3,32.3c-1.18,0.51-2.4,0.77-3.66,0.77
					C33.12,33.07,31.85,32.7,30.82,31.98 M46.23,42.06l-2.21-2.22h-3.88v1.49h2.1l1.64-0.87v3.53l-1.64-1.08h-2.1v1.2l2.09,1.69
					h-7.08l2.07-1.69v-3.9l-2.07-1.66h11.08V42.06z"/>
			</g>
		</g>
	</g>
</g>
</svg>